<svg xmlns="http://www.w3.org/2000/svg" xmlns:xlink="http://www.w3.org/1999/xlink" width="1469.516" height="161.5" viewBox="0 0 1469.516 161.5">
  <defs>
    <filter id="Union_1" x="0" y="0" width="1469.516" height="161.5" filterUnits="userSpaceOnUse">
      <feOffset dy="3" input="SourceAlpha"/>
      <feGaussianBlur stdDeviation="3" result="blur"/>
      <feFlood flood-opacity="0.161"/>
      <feComposite operator="in" in2="blur"/>
      <feComposite in="SourceGraphic"/>
    </filter>
  </defs>
  <g transform="matrix(1, 0, 0, 1, 0, 0)" filter="url(#Union_1)">
    <path id="Union_1-2" data-name="Union 1" d="M831.89,143.5c-5.653-3.332-7.574-8.453-6.9-14.65,1.067-9.823,2.371-19.622,3.416-29.446a144.127,144.127,0,0,0-.551-37.466c-.981-6.327-3.717-11.671-9.8-14.607-7.119-3.435-11.938-9.285-16.915-15.061-2.523-2.93-5.83-4.415-9.823-3.118-3.214,1.044-5.735,2.828-6.968,5.694a22.663,22.663,0,0,0-.71,4.415c-.19,2.9-.22,5.8-.14,8.687q1.117,13.141,2.423,26.265c.774,6.554,1.431,13.122.393,19.727-.673,4.288-2.225,8.091-7.65,8.138-.253,0-.5-.006-.748-.024-.245.018-.495.027-.748.024-5.426-.047-6.977-3.85-7.651-8.138-1.036-6.594-.383-13.152.39-19.7.856-8.764,1.682-17.533,2.426-26.305.079-2.886.049-5.779-.141-8.679a22.639,22.639,0,0,0-.713-4.426c-1.235-2.86-3.754-4.641-6.964-5.684-3.992-1.3-7.3.188-9.824,3.117-4.975,5.776-9.8,11.626-16.913,15.062-6.086,2.936-8.82,8.28-9.8,14.607a144.125,144.125,0,0,0-.553,37.466c1.045,9.824,2.349,19.623,3.417,29.445.673,6.2-1.249,11.319-6.9,14.651H716.95c-5.509-3.358-7.486-8.308-7.158-14.585a100.8,100.8,0,0,1,1.831-14.206c5.47-27.844,3.8-55.119-6.761-81.643-1.8-4.527-3.193-9.936-9.356-10.346-6.057-.4-9.016,4.216-11.8,8.575-7.111,11.138-9.573,23.232-8.227,36.372.833,8.148,2.371,16.356.664,24.619-.565,2.741-1.354,5.428-4.6,5.616-3.663.212-4.69-2.81-5.171-5.6-1.48-8.583.11-17.091,1.078-25.594a56.436,56.436,0,0,0-.6-17.23c-.475-2.448-1.3-5.09-4.151-5.64-2.7-.522-3.994,1.892-5.5,3.6-2.018,2.287-2.127,5.081-2.2,7.918-.1,4.108.338,8.266-.936,12.283-.4,1.273-.938,2.641-2.538,2.691-1.812.057-2.737-1.337-2.991-2.811a41.015,41.015,0,0,1-.523-6.882c-.007-4.784-.341-9.529-.717-14.3-.8-10.111-7.667-16.6-13.861-23.315-3.76-4.073-13.393-.917-17.133,5.106a26.371,26.371,0,0,0-3.822,17.062c.661,6.224,1.55,12.425,2.243,18.646.568,5.095.838,10.193-.715,15.2-1.85,5.98-4.977,8.5-10.225,8.194s-8.639-3.673-9.823-9.522c-1.078-5.319.2-10.518.739-15.737a119.384,119.384,0,0,0,.8-15.3c-.249-9.992-7.124-17.581-17.266-19.031a33.477,33.477,0,0,0-6.963-.227c-5.8.391-10.816-.777-14.682-5.557-1.512-1.871-3.561-3.744-6.449-2.512-2.8,1.2-3.874,3.7-3.75,6.456.245,5.427.8,10.84,1.265,16.257.408,4.765.955,9.544-.365,14.25-1.024,3.648-3.018,6.371-7.351,5.919-4.1-.427-6.1-3.114-6.566-6.939-.941-7.787.5-15.46,1.377-23.148a40.889,40.889,0,0,0-.315-12.789c-1.7-8.477-7.942-12.864-16.423-10.609-12.383,3.29-18.721,12.44-21.769,24.133-2.675,10.26-2.73,20.9-4.16,31.336a88.181,88.181,0,0,0,1.732,33.841c1.122,4.469,1.038,9.182-1.452,13.469-2.123,3.655-4.929,6.225-9.494,6.095a10.807,10.807,0,0,1-10.153-6.787c-2.008-4.462-2.208-9.2-1.793-14.057a310.9,310.9,0,0,0-.508-60.238,38.632,38.632,0,0,0-6.059-16.592c-3.9-6.113-9.436-6.523-14.409-1.2a29.439,29.439,0,0,0-6,10.725,23.343,23.343,0,0,1-8.233,11.478c-5.549,4.126-8.186,9.26-6.761,16.631,1.3,6.741,1.949,13.739.612,20.664-.793,4.1-2.184,7.788-7.294,7.977-5.069.187-7.568-2.953-8.714-7.284-2.557-9.677-.3-19.345.384-29,.492-6.9,1.184-13.791,1.754-20.687.139-1.682.137-3.573-1.845-4.11-2.1-.569-2.819,1.316-3.522,2.769-4.518,9.347-4.69,19.057-2.329,28.956a70.518,70.518,0,0,1,1.708,7.2c.562,4.352-1.242,7.737-5.076,9.927-2.976,1.7-6.083,1.839-8.934-.219-3.463-2.5-3.579-6.108-2.783-9.833,1.79-8.368,4.24-16.663,2.608-25.37a35.518,35.518,0,0,0-1.193-5.289c-2.318-6.565-4.137-6.776-10.248-3.793-9.606,4.691-12.681,12.6-13.717,22.4-1.769,16.753.375,33.238,2.449,49.766a112.971,112.971,0,0,1,1.333,14.254c-.015,6.915-4.012,11.387-9.673,11.714-6.177.357-10.226-3.517-11.182-10.726-.84-6.33.554-12.471,1.725-18.611,5.385-28.2,3.453-55.733-7.4-82.492-.309-.761-.645-1.516-1.012-2.254-4.191-8.424-11.207-9.214-17.042-1.669A51.556,51.556,0,0,0,318.47,42.032c-.306,7.946,1.057,15.783,1.471,23.682a50.051,50.051,0,0,1-.432,10.345c-.452,2.924-1.283,5.912-4.767,5.984-3.774.078-4.664-3.068-5.222-6.133-1.235-6.776-.178-13.489.67-20.183A83.35,83.35,0,0,0,310.5,35.99c-.374-3.361-.734-7.3-5.138-8.032-2.58-.427-6.566,4.892-6.854,8.721-.333,4.434-.431,8.888-.822,13.316-.169,1.919-.458,4.443-3.011,4.409-2.833-.039-3.031-2.643-3.127-4.794-.351-7.887-.085-15.791-1.89-23.6-1.906-8.241-8.051-13.54-13.473-19.123-3.491-3.595-12.361-.589-16.1,4.687a24.588,24.588,0,0,0-4.4,14.452c-.034,7.786,1.489,15.415,2.436,23.1a33.009,33.009,0,0,1-1.174,15.146c-1.555,4.473-4.332,7.424-9.5,7.124-5.062-.294-8.25-2.916-9.779-7.73-1.993-6.275-.093-12.454.432-18.633.364-4.277.751-8.537.736-12.822-.039-11.829-7.924-20.01-19.907-20.681a31.373,31.373,0,0,0-4.487.037c-5.624.5-10.463-.726-14.288-5.276-1.621-1.928-3.654-4.123-6.824-2.705C190.27,4.951,189.51,7.6,189.7,10.569c.415,6.412.9,12.822,1.48,19.222a29.661,29.661,0,0,1-.689,10.8c-.938,3.33-2.727,6.152-6.924,5.837-4.108-.308-6.287-2.731-6.8-6.625a22.676,22.676,0,0,1-.341-6.878c1.1-6.038-.1-11.834-1.714-17.489-1.14-3.976-5.285-5.015-8.759-6.354-6.729-2.593-13.556-2.037-20.336-.185a7.963,7.963,0,0,0-5.656,6.663c-3.515,21.261-8.206,42.494-3.327,64.2,1.288,5.729,1.838,11.408-1.528,16.767-4.511,7.181-13.978,7.124-18.361-.2-3.05-5.093-2.963-10.7-2.518-16.338a345.226,345.226,0,0,0-.271-57.8A39.9,39.9,0,0,0,104.314,0h1347.2a39.9,39.9,0,0,0-9.641,22.189,345.413,345.413,0,0,0-.272,57.8c.446,5.633.533,11.245-2.517,16.338-4.383,7.321-13.851,7.378-18.361.2-3.366-5.359-2.816-11.038-1.529-16.767,4.88-21.7.188-42.935-3.326-64.2a7.966,7.966,0,0,0-5.656-6.663c-6.781-1.851-13.608-2.407-20.337.186-3.474,1.339-7.618,2.377-8.757,6.354-1.62,5.654-2.818,11.45-1.715,17.488a22.676,22.676,0,0,1-.341,6.878c-.517,3.894-2.7,6.317-6.8,6.625-4.2.315-5.985-2.506-6.924-5.836a29.646,29.646,0,0,1-.688-10.8c.582-6.4,1.063-12.81,1.478-19.222.192-2.966-.568-5.618-3.614-6.98-3.17-1.418-5.2.777-6.824,2.7-3.824,4.55-8.664,5.773-14.287,5.276a31.4,31.4,0,0,0-4.489-.037c-11.983.671-19.868,8.852-19.907,20.681-.014,4.286.373,8.546.736,12.822.525,6.178,2.425,12.358.432,18.633-1.529,4.814-4.717,7.436-9.779,7.73-5.17.3-7.948-2.651-9.5-7.124a32.992,32.992,0,0,1-1.174-15.145c.948-7.684,2.47-15.313,2.437-23.1a24.6,24.6,0,0,0-4.4-14.452c-3.74-5.277-12.61-8.282-16.1-4.686-5.423,5.583-11.568,10.882-13.473,19.121-1.805,7.808-1.54,15.711-1.89,23.6-.1,2.151-.293,4.757-3.127,4.794-2.554.035-2.843-2.49-3.012-4.409-.391-4.428-.489-8.881-.822-13.316-.288-3.829-4.274-9.149-6.854-8.72-4.4.732-4.764,4.671-5.138,8.031a83.3,83.3,0,0,0,.308,19.737c.848,6.7,1.9,13.408.668,20.183-.558,3.064-1.448,6.212-5.22,6.133-3.484-.072-4.317-3.06-4.769-5.984a50.048,50.048,0,0,1-.432-10.345c.415-7.9,1.777-15.736,1.471-23.682a51.547,51.547,0,0,0-11.089-30.162c-5.835-7.545-12.85-6.755-17.042,1.669-.366.737-.7,1.492-1.012,2.255-10.851,26.758-12.783,54.3-7.4,82.491,1.174,6.141,2.565,12.281,1.726,18.611-.956,7.209-5,11.084-11.181,10.726-5.662-.327-9.66-4.8-9.675-11.713a113.146,113.146,0,0,1,1.334-14.255c2.073-16.529,4.219-33.013,2.448-49.766-1.036-9.8-4.11-17.708-13.717-22.4-6.11-2.984-7.929-2.772-10.247,3.792a35.5,35.5,0,0,0-1.193,5.29c-1.633,8.707.818,17,2.607,25.37.8,3.723.68,7.332-2.783,9.832-2.851,2.058-5.958,1.919-8.932.219-3.834-2.19-5.639-5.575-5.078-9.927a70.761,70.761,0,0,1,1.708-7.2c2.363-9.9,2.191-19.607-2.329-28.956-.7-1.453-1.424-3.338-3.522-2.769-1.981.537-1.984,2.428-1.845,4.11.572,6.9,1.262,13.784,1.755,20.687.689,9.66,2.941,19.327.383,29-1.146,4.331-3.645,7.471-8.713,7.284-5.109-.189-6.5-3.872-7.294-7.977-1.337-6.925-.693-13.923.611-20.664,1.427-7.371-1.21-12.5-6.76-16.631a23.332,23.332,0,0,1-8.234-11.478,29.454,29.454,0,0,0-6-10.725c-4.973-5.323-10.5-4.913-14.408,1.2a38.631,38.631,0,0,0-6.06,16.592,310.9,310.9,0,0,0-.508,60.238c.417,4.858.215,9.595-1.792,14.057a10.809,10.809,0,0,1-10.154,6.787c-4.565.131-7.371-2.44-9.493-6.095-2.489-4.287-2.574-9-1.453-13.469a88.162,88.162,0,0,0,1.732-33.841c-1.43-10.44-1.484-21.075-4.159-31.336-3.049-11.693-9.386-20.841-21.77-24.133-8.481-2.254-14.724,2.132-16.421,10.609a40.807,40.807,0,0,0-.315,12.789c.877,7.688,2.317,15.362,1.376,23.148-.463,3.825-2.463,6.512-6.566,6.939-4.334.452-6.327-2.271-7.351-5.919-1.321-4.706-.773-9.484-.365-14.25.463-5.416,1.02-10.829,1.264-16.256.125-2.759-.948-5.26-3.748-6.457-2.887-1.232-4.937.642-6.45,2.512-3.864,4.782-8.884,5.948-14.68,5.557a33.617,33.617,0,0,0-6.965.227c-10.14,1.45-17.016,9.039-17.264,19.031a119.712,119.712,0,0,0,.8,15.3c.541,5.217,1.818,10.417.739,15.736-1.184,5.849-4.577,9.213-9.823,9.522s-8.373-2.214-10.225-8.193c-1.552-5.012-1.283-10.111-.716-15.206.694-6.221,1.581-12.422,2.244-18.646a26.379,26.379,0,0,0-3.822-17.061c-3.74-6.023-13.374-9.179-17.134-5.107-6.193,6.71-13.065,13.206-13.86,23.315-.376,4.772-.711,9.518-.717,14.3a41.026,41.026,0,0,1-.524,6.883c-.254,1.472-1.179,2.867-2.991,2.81-1.6-.05-2.134-1.417-2.538-2.691-1.272-4.016-.838-8.175-.936-12.283-.068-2.838-.176-5.631-2.194-7.918-1.509-1.708-2.807-4.123-5.5-3.6-2.848.55-3.676,3.192-4.151,5.64a56.469,56.469,0,0,0-.6,17.231c.968,8.5,2.557,17.011,1.077,25.593-.48,2.786-1.507,5.809-5.17,5.6-3.243-.188-4.031-2.874-4.6-5.616-1.706-8.263-.169-16.471.666-24.618,1.346-13.14-1.117-25.235-8.228-36.373-2.785-4.359-5.744-8.977-11.8-8.574-6.162.409-7.555,5.818-9.356,10.345-10.558,26.524-12.231,53.8-6.76,81.644a100.916,100.916,0,0,1,1.832,14.206c.328,6.277-1.649,11.227-7.159,14.585Zm57.494-112.07c-.075,2.551,2.041,3.74,4.43,3.578,2.774-.189,4.684-1.826,4.858-4.679.166-2.692-1.706-3.659-3.865-3.848C891.4,26.7,889.47,28.488,889.384,31.431Zm-232.225-1.1c.174,2.853,2.085,4.489,4.859,4.678,2.388.164,4.5-1.027,4.428-3.577-.086-2.943-2.015-4.73-5.422-4.949C658.863,26.671,656.994,27.636,657.158,30.329Zm462.516-5.355c.293,3.461,1.891,6.962,5.516,7.279s3.974-3.186,4.012-6.54c.365-3.256-1.76-4.711-5.036-4.775l-.163,0C1121.474,20.936,1119.433,22.1,1119.675,24.974ZM431.662,20.938c-3.274.064-5.4,1.519-5.035,4.775.039,3.353.381,6.857,4.011,6.539s5.225-3.818,5.516-7.278c.241-2.875-1.8-4.038-4.328-4.038Zm720.063.086c.02,1.809.629,3.968,3.014,3.768,2.919-.246,4.111-2.677,4.575-5.17.4-2.134-1.121-3.235-3.046-3.745C1153.441,16.536,1151.7,18.189,1151.725,21.024Zm-755.207-1.4c.463,2.492,1.656,4.924,4.574,5.169,2.385.2,3-1.958,3.013-3.767.029-2.835-1.715-4.488-4.543-5.146C397.637,16.388,396.121,17.489,396.518,19.623Zm854.155-8.88c-2.894.3-4.262,2.148-4.578,4.818.38,2.7,2.136,3.875,4.5,3.6,2.915-.331,4.947-2.044,4.7-5.224-.182-2.382-1.795-3.242-3.806-3.242A8.007,8.007,0,0,0,1250.672,10.742Zm-950.144,3.2c-.241,3.181,1.79,4.892,4.7,5.224,2.366.27,4.122-.909,4.5-3.6-.316-2.669-1.685-4.522-4.577-4.819a7.987,7.987,0,0,0-.82-.043C302.324,10.7,300.712,11.557,300.529,13.94Zm668.032-5.4c-.682,1.967.491,3.474,1.861,4.749a10.062,10.062,0,0,0,7.795,2.645c6.96-.267,10.92-3.579,10.479-8.4a4.736,4.736,0,0,0-2.332-4.087,3.426,3.426,0,0,0-4.476.912c-2.509,2.851-5.7,2.907-9.086,2.655-.54-.04-1.118-.113-1.673-.113A2.365,2.365,0,0,0,968.561,8.544Zm-399.1-5.092a4.739,4.739,0,0,0-2.332,4.087c-.441,4.82,3.52,8.132,10.479,8.4a10.071,10.071,0,0,0,7.8-2.645c1.369-1.275,2.542-2.782,1.86-4.749-.709-2.049-2.642-1.644-4.243-1.525-3.385.252-6.575.2-9.085-2.655a3.692,3.692,0,0,0-2.748-1.389A3.564,3.564,0,0,0,569.465,3.452ZM42.755,59.358c-4.975-.419-7.633-4.519-6.653-10.667.6-3.737,1.587-7.411,2.331-11.126a43.743,43.743,0,0,0,.211-16.232C37.092,12.455,31.531,7.779,22.4,7.935c-2.994.051-5.475-.943-8.079-1.983C9.564,4.055,5.18,1.217,0,.2H95.8c-5.328,4.853-7.591,10.944-10.138,16.926a19,19,0,0,1-3.993,5.607c-5.964,6.083-11.7,5.375-16.213-1.884-1.566-2.52-2.905-5.181-4.528-7.663-1.139-1.741-2.191-4.209-4.651-3.9-2.155.274-2.642,2.719-3.413,4.52-3.933,9.2-3.7,18.6-1.33,28.1.636,2.547,1.642,5.008,1.556,7.717-.167,5.354-4.562,9.77-9.608,9.77Q43.12,59.388,42.755,59.358ZM74.749,5.109c-3.221.169-5.309,1.752-5.271,5.34.648,2.611.774,6.377,4.458,5.966s5.182-3.983,5.446-7.4C79.592,6.267,77.6,5.1,75.161,5.1,75.025,5.1,74.887,5.1,74.749,5.109Z" transform="translate(9 6)" fill="#fff"/>
  </g>
</svg>
