<svg id="Component_36_1" data-name="Component 36 – 1" xmlns="http://www.w3.org/2000/svg" width="18.147" height="18.148" viewBox="0 0 18.147 18.148">
  <path id="Path_84" data-name="Path 84" d="M114.643,363.288H101.386a2.445,2.445,0,0,0-2.445,2.446V378.99a2.445,2.445,0,0,0,2.445,2.446h6.539l.011-6.485h-1.685a.4.4,0,0,1-.4-.4l-.008-2.09a.4.4,0,0,1,.4-.4h1.682v-2.02a3.3,3.3,0,0,1,3.522-3.62h1.716a.4.4,0,0,1,.4.4v1.763a.4.4,0,0,1-.4.4H112.11c-1.137,0-1.357.541-1.357,1.334v1.749h2.5a.4.4,0,0,1,.395.444L113.4,374.6a.4.4,0,0,1-.394.351h-2.24l-.011,6.485h3.89a2.445,2.445,0,0,0,2.445-2.446V365.734a2.445,2.445,0,0,0-2.445-2.446Zm0,0" transform="translate(-98.941 -363.288)" fill="#666" opacity="0.5"/>
</svg>
