<svg id="Component_34_1" data-name="Component 34 – 1" xmlns="http://www.w3.org/2000/svg" width="21.817" height="18.148" viewBox="0 0 21.817 18.148">
  <g id="Group_35" data-name="Group 35" opacity="0.5">
    <path id="Path_83" data-name="Path 83" d="M164.954,365.4a8.629,8.629,0,0,1-1.5.507,4.7,4.7,0,0,0,1.238-1.971.246.246,0,0,0-.36-.287,8.678,8.678,0,0,1-2.3.95.6.6,0,0,1-.144.018.611.611,0,0,1-.4-.153,4.7,4.7,0,0,0-3.112-1.175,5.035,5.035,0,0,0-1.49.23,4.556,4.556,0,0,0-3.071,3.284,5.018,5.018,0,0,0-.112,1.732.169.169,0,0,1-.042.132.175.175,0,0,1-.13.059h-.016a12.335,12.335,0,0,1-8.477-4.529.246.246,0,0,0-.4.031,4.709,4.709,0,0,0,.766,5.718,4.194,4.194,0,0,1-1.073-.415.246.246,0,0,0-.366.212,4.71,4.71,0,0,0,2.747,4.338h-.1a4.244,4.244,0,0,1-.792-.075.246.246,0,0,0-.28.316,4.714,4.714,0,0,0,3.724,3.207A8.682,8.682,0,0,1,144.391,379h-.544a.361.361,0,0,0-.353.272.373.373,0,0,0,.179.411,12.908,12.908,0,0,0,6.487,1.749,13.076,13.076,0,0,0,5.543-1.176,12.234,12.234,0,0,0,4.056-3.039,13.325,13.325,0,0,0,2.484-4.16,13.14,13.14,0,0,0,.844-4.552v-.071a.8.8,0,0,1,.3-.623,9.291,9.291,0,0,0,1.87-2.053.246.246,0,0,0-.3-.361Zm0,0" transform="translate(-143.483 -363.288)" fill="#666"/>
  </g>
</svg>
