<svg id="Component_32_1" data-name="Component 32 – 1" xmlns="http://www.w3.org/2000/svg" width="18.148" height="18.148" viewBox="0 0 18.148 18.148">
  <g id="Group_33" data-name="Group 33" opacity="0.53">
    <path id="Path_80" data-name="Path 80" d="M265.618,363.288h-7.335a5.412,5.412,0,0,0-5.406,5.406v7.335a5.412,5.412,0,0,0,5.406,5.406h7.335a5.412,5.412,0,0,0,5.406-5.406v-7.335a5.412,5.412,0,0,0-5.406-5.406Zm3.581,12.741a3.581,3.581,0,0,1-3.581,3.581h-7.335a3.581,3.581,0,0,1-3.581-3.581v-7.335a3.581,3.581,0,0,1,3.581-3.581h7.335a3.581,3.581,0,0,1,3.581,3.581Zm0,0" transform="translate(-252.877 -363.288)" fill="#666"/>
    <path id="Path_81" data-name="Path 81" d="M265.536,371.253a4.694,4.694,0,1,0,4.694,4.694,4.7,4.7,0,0,0-4.694-4.694Zm0,7.562a2.868,2.868,0,1,1,2.868-2.868,2.868,2.868,0,0,1-2.868,2.868Zm0,0" transform="translate(-256.462 -366.873)" fill="#666"/>
  </g>
</svg>
