<svg id="Component_38_2" data-name="Component 38 – 2" xmlns="http://www.w3.org/2000/svg" width="130.048" height="125.25" viewBox="0 0 130.048 125.25">
  <g id="Group_22" data-name="Group 22" transform="translate(-327.502 -472.82) rotate(30)">
    <path id="Path_69" data-name="Path 69" d="M643.065,243.858c5.932-2.13,11.189-4.9,16.94-6.28a25.712,25.712,0,0,1,11.416-.41c3.139.662,5.948,2.306,6.681,5.326.749,3.084-.921,5.984-3.36,8.137-3.372,2.977-7.544,4.451-11.75,5.6a81.283,81.283,0,0,1-24.848,2.76c-2.45-.1-4.7-.309-4.914-3.51-.08-1.184-.842-.462-1.336-.377a2.889,2.889,0,0,1-3.6-2.762,57.04,57.04,0,0,1,1.53-16.224,29.259,29.259,0,0,1,4.414-9.3,6.7,6.7,0,0,1,10.664-.333,4.781,4.781,0,0,1,.939,2.987C646.1,234.376,644.895,239.015,643.065,243.858ZM638.8,254.5c8.47.3,16.834.05,24.83-3.077a20.568,20.568,0,0,0,8.282-5.629c1.1-1.267,1.056-2.015-.438-2.992-2.484-1.623-5.022-.838-7.586-.62C653.961,243.027,645.932,247.767,638.8,254.5Zm-6.988-4.26c4.106-3.91,7.481-7.579,9.171-12.475a7.625,7.625,0,0,0,.5-4.061c-.29-1.351.249-3.446-1.293-3.84-1.937-.5-3.145,1.312-3.985,2.872C633.372,238,632.637,243.808,631.81,250.24Z" transform="translate(-20.624)" fill="#080808"/>
    <path id="Path_70" data-name="Path 70" d="M622.632,283.124c.166,1.08-.646,1.688-1.22,2.362a66.4,66.4,0,0,1-15.923,13.166A135.782,135.782,0,0,1,583.561,309.3a2.061,2.061,0,0,1-2.634-.485,29.982,29.982,0,0,1-4.9-8.031c-.666-1.405.765-1.228,1.4-1.4a91.74,91.74,0,0,0,17.862-6.71c8.3-4.223,15.866-9.4,21.366-17.116.687-.964,1.2-.842,2.034-.231C621.348,277.272,622.153,280.105,622.632,283.124Z" transform="translate(-5.315 -14.855)" fill="#f69520"/>
    <path id="Path_71" data-name="Path 71" d="M567.105,273.582c-.186-.922.377-1.179,1.142-1.341,11.515-2.453,21.027-8.342,28.923-16.96.669-.731,1.128-.775,1.9-.168,2.412,1.9,4.842,3.789,7.339,5.578,1.177.843.882,1.436.1,2.336a55.17,55.17,0,0,1-12.933,10.652,102.852,102.852,0,0,1-22.88,10.168c-1.71.547-2.232.263-2.367-1.606C568.117,279.34,567.531,276.467,567.105,273.582Z" transform="translate(-2.749 -8.965)" fill="#f69520"/>
    <path id="Path_72" data-name="Path 72" d="M632.5,300.778c1.788,3.655,1.748,7.281,1.907,10.867.042.963-.751,1.487-1.325,2.069-8.236,8.351-18.451,13.052-29.607,16.014a2.392,2.392,0,0,1-2.338-.57c-1.794-1.54-3.6-3.067-5.708-4.861C609.685,319.26,622.517,312.482,632.5,300.778Z" transform="translate(-11.033 -22.427)" fill="#f69521"/>
    <path id="Path_73" data-name="Path 73" d="M582.338,240.151a4.955,4.955,0,0,0-1.42-2.845,14.359,14.359,0,0,1-2.575-3.51,6.747,6.747,0,0,1,2.613-8.82c2-1.232,4.629-.143,6.291,2.6.562.928-.44,3.926-1.565,4.671-.126.084-.271.219-.4.21-4.23-.341-1.552,1.5-.8,2.621a7.223,7.223,0,0,1,1.286,5.671c-.167.782-.184,2.25-1.323,1.945C583.559,242.456,581.533,242.447,582.338,240.151Z" transform="translate(-5.842 -0.138)" fill="#080808"/>
    <path id="Path_74" data-name="Path 74" d="M563.254,240.984c1.286.956,2.728,1.367,3.778,2.4a6.345,6.345,0,0,1,2.019,4.012c.059.621.327,1.567-.77,1.529-.739-.025-1.891.6-2.177-.535-.5-1.979-2.094-2.463-3.634-3.125-4.314-1.856-5.811-5.316-4.149-9.416.669-1.652,1.9-2.541,3.564-2.168,1.44.323,3.389.376,3.632,2.483.2,1.7.685,3.641-1.792,4.282C563.607,240.472,563.529,240.659,563.254,240.984Z" transform="translate(0 -2.802)" fill="#080808"/>
    <path id="Path_75" data-name="Path 75" d="M634.4,342.782c-1.147,0-2.3.057-3.438-.023-.648-.045-1.7.513-1.782-.752-.062-.935-.345-1.984.9-2.549a34.663,34.663,0,0,0,8.859-5.622,2.309,2.309,0,0,1,2.389-.22c1,.3.544,1.312.507,1.988a17.015,17.015,0,0,1-1.759,6.123A1.63,1.63,0,0,1,638.3,342.8C637,342.742,635.7,342.782,634.4,342.782Z" transform="translate(-20.871 -31.953)" fill="#080808"/>
    <path id="Path_76" data-name="Path 76" d="M643.146,261.846c7.133-6.734,15.162-11.474,25.089-12.317,2.564-.218,5.1-1,7.586.62,1.494.976,1.538,1.724.438,2.992a20.568,20.568,0,0,1-8.282,5.629C659.98,261.9,651.616,262.143,643.146,261.846Z" transform="translate(-24.971 -7.345)" fill="#f8f8f8"/>
    <path id="Path_77" data-name="Path 77" d="M633.274,252.625c.827-6.432,1.562-12.237,4.4-17.5.84-1.56,2.048-3.368,3.985-2.872,1.542.394,1,2.49,1.293,3.84a7.626,7.626,0,0,1-.5,4.061C640.755,245.047,637.38,248.716,633.274,252.625Z" transform="translate(-22.087 -2.385)" fill="#f5f5f5"/>
  </g>
</svg>
