<svg xmlns="http://www.w3.org/2000/svg" width="29.363" height="19.148" viewBox="0 0 29.363 19.148">
  <g id="Component_31_1" data-name="Component 31 – 1" transform="translate(0.5 0.5)">
    <g id="Group_31" data-name="Group 31" opacity="0.5">
      <path id="Path_78" data-name="Path 78" d="M304.9,374.234h4.431a5.633,5.633,0,1,1-1.529-6.04.61.61,0,0,0,.83,0l1.628-1.532a.608.608,0,0,0,0-.885,9.041,9.041,0,0,0-6.058-2.484,9.074,9.074,0,1,0,8.878,9.583c.007-.06.012-2.083.012-2.083H304.9a.608.608,0,0,0-.608.608v2.228a.608.608,0,0,0,.608.608Zm0,0" transform="translate(-294.95 -363.288)" fill="#666" stroke="#efecec" stroke-miterlimit="10" stroke-width="1"/>
      <path id="Path_79" data-name="Path 79" d="M337.008,375.079V372.9a.533.533,0,0,0-.533-.533h-1.832a.533.533,0,0,0-.533.533v2.177h-2.177a.533.533,0,0,0-.533.533v1.832a.533.533,0,0,0,.533.533h2.177v2.177a.533.533,0,0,0,.533.533h1.832a.533.533,0,0,0,.533-.533v-2.177h2.177a.533.533,0,0,0,.533-.533v-1.832a.533.533,0,0,0-.533-.533Zm0,0" transform="translate(-311.355 -367.375)" fill="#666" stroke="#efecec" stroke-miterlimit="10" stroke-width="1"/>
    </g>
  </g>
</svg>
