<svg id="Component_33_1" data-name="Component 33 – 1" xmlns="http://www.w3.org/2000/svg" width="25.646" height="18.148" viewBox="0 0 25.646 18.148">
  <path id="Path_82" data-name="Path 82" d="M215.019,363.288H200.025a5.326,5.326,0,0,0-5.326,5.326v7.5a5.326,5.326,0,0,0,5.326,5.326h14.994a5.326,5.326,0,0,0,5.326-5.326v-7.5a5.326,5.326,0,0,0-5.326-5.326Zm-3.6,9.438-7.013,3.345a.281.281,0,0,1-.4-.254v-6.9a.282.282,0,0,1,.409-.251l7.013,3.554a.281.281,0,0,1-.006.505Zm0,0" transform="translate(-194.699 -363.288)" fill="#666" opacity="0.5"/>
</svg>
