<svg xmlns="http://www.w3.org/2000/svg" width="153.622" height="80" viewBox="0 0 153.622 80">
  <g id="Group_1" data-name="Group 1" transform="translate(330.626 -257.972)">
    <path id="Path_1" data-name="Path 1" d="M-307.381,292.914c.7.27,1.133.433,1.562.6,3.873,1.511,5.177,4.613,5.3,8.483.109,3.347-1.877,5.2-4.566,6.575a16.048,16.048,0,0,1-7.877,1.954c-5.019-.135-10.044-.063-15.066-.017-1.025.01-1.323-.249-1.24-1.314q1.113-14.235,2.109-28.481c.06-.854.4-1.012,1.144-1.009,5.126.022,10.253-.024,15.378.033a12.887,12.887,0,0,1,4.953,1.2c2.225.964,4.038,2.187,4.107,5.043a5.9,5.9,0,0,1-3.837,6.108C-305.975,292.341-306.549,292.569-307.381,292.914Zm-9.464,12.6c1.013,0,1.791,0,2.567,0,2.7-.007,4.54-1.546,4.547-3.811.01-3.055-1.491-4.537-4.6-4.538h-1.865c-4.291,0-4.3,0-4.407,4.265-.032,1.287-.487,2.976.145,3.76C-319.7,306.13-317.928,305.344-316.845,305.514Zm1.6-20.43v.039c-.931,0-1.862.012-2.793,0-.6-.01-.973.137-1.011.844-.1,1.807-.257,3.611-.372,5.418-.025.384-.171.984.433.969,2.253-.057,4.565.484,6.734-.557A3.3,3.3,0,0,0-310.3,287.7c-.362-1.834-1.189-2.511-3.239-2.616C-314.106,285.058-314.677,285.083-315.245,285.083Z" transform="translate(-0.479 -7.715)" fill="#fff"/>
    <path id="Path_2" data-name="Path 2" d="M-134.753,271.357c4-1.436,7.542-3.3,11.419-4.233a17.34,17.34,0,0,1,7.7-.276c2.115.446,4.009,1.555,4.5,3.59.505,2.079-.62,4.033-2.265,5.485a19.192,19.192,0,0,1-7.92,3.773,54.769,54.769,0,0,1-16.748,1.86c-1.651-.068-3.168-.208-3.313-2.366-.054-.8-.568-.312-.9-.254a1.947,1.947,0,0,1-2.425-1.862,38.446,38.446,0,0,1,1.031-10.935,19.713,19.713,0,0,1,2.975-6.272,4.519,4.519,0,0,1,7.188-.224,3.222,3.222,0,0,1,.633,2.013A23.665,23.665,0,0,1-134.753,271.357Zm-2.875,7.173c5.709.2,11.346.034,16.737-2.074a13.866,13.866,0,0,0,5.582-3.794c.742-.855.712-1.358-.295-2.017-1.674-1.094-3.385-.564-5.114-.418C-127.408,270.8-132.82,273.992-137.628,278.531Zm-4.711-2.872c2.768-2.636,5.043-5.109,6.182-8.408a5.143,5.143,0,0,0,.339-2.737c-.2-.91.168-2.323-.871-2.589-1.306-.334-2.12.885-2.686,1.936C-141.286,267.411-141.781,271.324-142.339,275.659Z" transform="translate(-65.991)" fill="#fff"/>
    <path id="Path_3" data-name="Path 3" d="M-228.268,313.927a11.728,11.728,0,0,1-11.433-8.983,11.737,11.737,0,0,1,5.927-13.139,11.811,11.811,0,0,1,14.346,2.4c1.67,1.871,1.709,1.978-.286,3.39-3.633,2.572-7.341,5.038-10.972,7.611-.92.652-1.418.345-1.818-.461-.352-.709-1.5-1.326-.126-2.264,2.479-1.692,4.839-3.557,7.3-5.27,1.051-.73.745-1.066-.16-1.53-2.663-1.363-5.917-.593-8.269,2-1.817,2-1.958,5.719-.313,8.273,2.78,4.316,9.587,3.946,12.02-.635.344-.647.441-1.75,1.315-1.736a13.236,13.236,0,0,1,3.795.69c.633.205.139.933.008,1.372A11.7,11.7,0,0,1-228.268,313.927Z" transform="translate(-32.158 -11.508)" fill="#fff"/>
    <path id="Path_4" data-name="Path 4" d="M-267.641,313.925a11.723,11.723,0,0,1-11.532-9.252,11.776,11.776,0,0,1,6.646-13.211,11.88,11.88,0,0,1,14.175,3.3c.866,1.1.824,1.788-.351,2.58q-5.73,3.864-11.377,7.849c-1.022.726-1.453.258-1.92-.552-.435-.754-1.275-1.367.037-2.237,2.458-1.63,4.774-3.47,7.195-5.158.965-.673.889-1.028-.11-1.545-2.639-1.366-5.883-.626-8.279,1.956-1.866,2.011-1.983,5.807-.259,8.4,2.667,4.013,9.313,3.842,11.719-.3a5.416,5.416,0,0,0,.573-1.1c.328-1.1,1.018-1.3,2.017-.949a6.1,6.1,0,0,0,.914.175c2.49.469,2.49.469,1.462,2.9A11.765,11.765,0,0,1-267.641,313.925Z" transform="translate(-18.166 -11.506)" fill="#fff"/>
    <path id="Path_5" data-name="Path 5" d="M-151.969,301.166c.112.728-.435,1.138-.822,1.592a44.765,44.765,0,0,1-10.732,8.875,91.519,91.519,0,0,1-14.781,7.18,1.389,1.389,0,0,1-1.776-.327,20.238,20.238,0,0,1-3.3-5.413c-.449-.947.515-.828.946-.944a61.858,61.858,0,0,0,12.041-4.523c5.6-2.846,10.694-6.334,14.4-11.537.463-.65.809-.567,1.372-.155C-152.834,297.221-152.292,299.131-151.969,301.166Z" transform="translate(-52.228 -13.354)" fill="#fff"/>
    <path id="Path_6" data-name="Path 6" d="M-189.973,293.409c-.125-.621.255-.795.77-.9a36.231,36.231,0,0,0,19.495-11.432c.451-.492.761-.522,1.28-.113,1.625,1.284,3.263,2.554,4.947,3.76.793.568.594.968.067,1.574a37.178,37.178,0,0,1-8.717,7.18,69.333,69.333,0,0,1-15.422,6.854c-1.153.368-1.5.177-1.6-1.082C-189.291,297.29-189.686,295.353-189.973,293.409Z" transform="translate(-49.921 -8.06)" fill="#fff"/>
    <path id="Path_7" data-name="Path 7" d="M-144.031,314.769c1.2,2.463,1.178,4.907,1.285,7.325.029.649-.506,1-.893,1.395-5.552,5.628-12.437,8.8-19.956,10.794a1.614,1.614,0,0,1-1.576-.384c-1.209-1.038-2.427-2.068-3.848-3.277C-159.409,327.226-150.76,322.658-144.031,314.769Z" transform="translate(-57.368 -20.162)" fill="#fff"/>
    <path id="Path_8" data-name="Path 8" d="M-327.685,368.909c0,1.442-.057,2.669.015,3.889.082,1.385-.883.926-1.57.984-.753.063-1.4.154-1.382-1.02.061-4.139.015-8.279.035-12.419,0-.452-.264-1.2.552-1.186.7.013,1.668-.495,2.049.4.3.7.456.408.839.187,3.143-1.822,6.167-.455,6.853,3.115a8.276,8.276,0,0,1-.02,3.242C-321.06,369.687-324.064,370.944-327.685,368.909Zm4.521-4.8a5.64,5.64,0,0,0-.178-1.231,2.091,2.091,0,0,0-2.141-1.66,2.146,2.146,0,0,0-2.087,1.742,5.014,5.014,0,0,0-.115,1.378c-.011,2.081.908,3.41,2.335,3.408C-323.979,367.741-323.152,366.476-323.165,364.107Z" transform="translate(0 -35.842)" fill="#fff"/>
    <path id="Path_9" data-name="Path 9" d="M-297.139,365.333c.03.655.095,1.738.122,2.821.013.515.74,1.2.042,1.487s-1.871.486-2.328-.135c-.622-.844-.963-.371-1.469-.1a4.494,4.494,0,0,1-4.029.184,2.816,2.816,0,0,1-1.757-2.846,2.8,2.8,0,0,1,1.729-2.708,20.988,20.988,0,0,1,3.74-.973c.464-.114,1.1-.141,1.04-.892a1.089,1.089,0,0,0-1.135-1.045c-.842-.086-1.68-.13-2.2.735a.71.71,0,0,1-.891.412c-.622-.209-1.586.08-1.828-.57-.256-.688.428-1.324.939-1.823,1.494-1.454,5.55-1.507,7.129-.148a2.631,2.631,0,0,1,.877,1.921C-297.089,362.73-297.139,363.818-297.139,365.333Zm-5,2.5a2.075,2.075,0,0,0,2.174-2.13c.017-.507.025-.873-.72-.835-1.661.085-3,.787-2.927,1.711C-303.544,367.46-302.976,367.827-302.137,367.837Z" transform="translate(-8.544 -35.773)" fill="#fff"/>
    <path id="Path_10" data-name="Path 10" d="M-199.441,365.279c-.775,0-1.551-.029-2.323.012-.368.02-.886-.252-1.07.3a1.405,1.405,0,0,0,.33,1.157,1.869,1.869,0,0,0,3.21.259c.938-1.345,1.97-.336,2.9-.234.573.063.091.692-.078,1-1.667,3.017-6.878,3.047-8.633,0a6.567,6.567,0,0,1-.059-6.529,4.4,4.4,0,0,1,4.192-2.427,5.083,5.083,0,0,1,5.09,5.753c-.079.653-.41.728-.928.718C-197.685,365.268-198.563,365.279-199.441,365.279Zm-1.412-1.76c.586-.482,1.85.673,1.923-.683a1.707,1.707,0,0,0-1.959-1.724c-1.138.034-1.992.76-1.878,1.811C-202.651,364-201.5,363.157-200.853,363.52Z" transform="translate(-44.24 -35.797)" fill="#fff"/>
    <path id="Path_11" data-name="Path 11" d="M-143.5,365.268c-.776,0-1.555.049-2.327-.01-1.259-.1-1.3.479-.815,1.368a1.951,1.951,0,0,0,3.328.37,3.084,3.084,0,0,1,2.9-.273c.492.426.007.764-.166,1.063-1.071,1.855-2.8,2.278-4.789,2.157a4.313,4.313,0,0,1-4.042-2.64,6.975,6.975,0,0,1,0-5.727,4.838,4.838,0,0,1,6.135-2.5A5.358,5.358,0,0,1-140,364.652c-.113.563-.42.623-.869.618C-141.746,365.261-142.625,365.267-143.5,365.268Zm-1.476-1.751c.628-.461,1.868.62,1.984-.664a1.737,1.737,0,0,0-1.924-1.79,1.754,1.754,0,0,0-1.914,1.809C-146.753,364.045-145.582,363.107-144.98,363.517Z" transform="translate(-64.108 -35.788)" fill="#fff"/>
    <path id="Path_12" data-name="Path 12" d="M-223.935,369.918c-2.3.075-3.955-.419-5.039-2.17-.457-.738-.512-1.209.557-1.3.939-.084,1.932-.594,2.477.752a1.289,1.289,0,0,0,1.207.585c.877.02,2.055.212,2.279-.8.26-1.168-1.024-.986-1.741-1.222-.98-.323-1.994-.555-2.954-.93a2.783,2.783,0,0,1-1.89-2.768,2.972,2.972,0,0,1,1.892-2.79c1.925-.888,5.111-.639,6.335.6.46.464,1.391,1.192.724,1.721a1.876,1.876,0,0,1-2.631.09,2.465,2.465,0,0,0-2.694-.652c-.355.1-.725.217-.724.676,0,.436.329.631.69.731,1,.277,2.007.5,3,.8,2.339.7,3.277,1.778,3.066,3.461-.225,1.8-1.835,3.1-4,3.218A5.152,5.152,0,0,1-223.935,369.918Z" transform="translate(-35.975 -35.773)" fill="#fff"/>
    <path id="Path_13" data-name="Path 13" d="M-247.49,369.913c-2.176.1-3.84-.489-4.907-2.314-.375-.641-.366-1.037.508-1.129.986-.105,1.869-.536,2.666.726.623.987,1.934.742,3,.326a.71.71,0,0,0,.465-.732c-.018-.51-.378-.7-.793-.821-1.142-.323-2.3-.606-3.43-.953a2.913,2.913,0,0,1-2.378-3.028,3.047,3.047,0,0,1,2.674-2.977c1.958-.426,3.927-.525,5.586.907.486.419,1.017.966.8,1.7-.122.41-2.375.533-2.7.135a2.381,2.381,0,0,0-2.512-.791c-.452.088-.993.2-1,.784-.008.5.479.627.875.735.9.244,1.8.444,2.7.69,2.4.66,3.366,1.738,3.186,3.527s-1.782,3.089-3.975,3.214C-247.042,369.928-247.353,369.913-247.49,369.913Z" transform="translate(-27.687 -35.768)" fill="#fff"/>
    <path id="Path_14" data-name="Path 14" d="M-279.713,353.271c0,1,.026,1.671-.006,2.337-.044.882-.093,1.652,1.215,1.524.938-.091.621.736.673,1.238.064.606.034,1.21-.826,1.112-.968-.11-1.1.409-1.068,1.2.047,1.033.018,2.07.01,3.105-.008.975-.088,1.923,1.424,1.722.83-.11.508.716.637,1.142a.858.858,0,0,1-.595,1.207c-2.394.883-4.316-.353-4.387-2.883-.036-1.293,0-2.588-.01-3.881-.006-.735.226-1.5-.962-1.728-.653-.126-.459-1.968.251-2.24.355-.136.76-.15.69-.626C-282.983,354.377-281.1,354.311-279.713,353.271Z" transform="translate(-16.549 -33.829)" fill="#fff"/>
    <path id="Path_15" data-name="Path 15" d="M-179.01,268.89a3.335,3.335,0,0,0-.957-1.918,9.669,9.669,0,0,1-1.736-2.366,4.549,4.549,0,0,1,1.761-5.946c1.346-.829,3.121-.1,4.24,1.753.379.626-.3,2.646-1.055,3.149-.085.056-.183.148-.268.141-2.852-.23-1.046,1.008-.539,1.767a4.873,4.873,0,0,1,.867,3.822c-.113.528-.124,1.516-.892,1.311C-178.187,270.444-179.552,270.437-179.01,268.89Z" transform="translate(-52.702 -0.124)" fill="#fff"/>
    <path id="Path_16" data-name="Path 16" d="M-193.187,270.051a23.826,23.826,0,0,1,2.547,1.614,4.273,4.273,0,0,1,1.361,2.7c.039.418.221,1.056-.519,1.031-.5-.017-1.275.4-1.468-.361-.336-1.334-1.411-1.66-2.448-2.107-2.908-1.251-3.917-3.583-2.8-6.346a2.022,2.022,0,0,1,2.4-1.462c.971.217,2.285.253,2.448,1.674.132,1.147.462,2.454-1.208,2.886C-192.949,269.706-193,269.831-193.187,270.051Z" transform="translate(-47.45 -2.519)" fill="#fff"/>
    <path id="Path_17" data-name="Path 17" d="M-166.936,364.4c0-1.344-.025-2.688.014-4.031.013-.453-.3-1.193.472-1.253.721-.055,1.779-.471,2.134.257.434.889.572.3.869.057a2.149,2.149,0,0,1,1.7-.608c.653.1,1.758-.05,1.559.945-.138.69.182,2.3-1.686,1.769-1.313-.372-1.887.688-1.97,1.805a39.619,39.619,0,0,0-.084,5.109c.075,1.354-.658,1.31-1.62,1.352-1.061.046-1.487-.252-1.409-1.373C-166.865,367.1-166.936,365.747-166.936,364.4Z" transform="translate(-58.094 -35.795)" fill="#fff"/>
    <path id="Path_18" data-name="Path 18" d="M-140.536,345.224c-.773,0-1.548.039-2.317-.015-.437-.03-1.144.346-1.2-.506-.042-.631-.232-1.337.61-1.718a23.332,23.332,0,0,0,5.971-3.789,1.557,1.557,0,0,1,1.611-.148c.673.2.367.884.342,1.34a11.478,11.478,0,0,1-1.186,4.127,1.1,1.1,0,0,1-1.2.72C-138.783,345.2-139.66,345.224-140.536,345.224Z" transform="translate(-66.213 -28.725)" fill="#fff"/>
    <path id="Path_19" data-name="Path 19" d="M-181.3,364.609c0-1.449.064-2.9-.019-4.345-.075-1.306.784-1.055,1.529-1.069.784-.015,1.525-.155,1.485,1.122-.09,2.843-.078,5.692-.006,8.536.033,1.3-.776,1.058-1.529,1.078-.8.021-1.564.116-1.481-1.132C-181.228,367.408-181.3,366.006-181.3,364.609Z" transform="translate(-52.999 -35.928)" fill="#fff"/>
    <path id="Path_20" data-name="Path 20" d="M-262.9,364.59c0,1.447-.037,2.9.012,4.341.041,1.214-.81.959-1.485.971-.644.012-1.382.181-1.369-.921.036-2.945.045-5.892,0-8.837-.021-1.255.833-.893,1.483-.937.746-.051,1.451-.12,1.384,1.043C-262.961,361.693-262.9,363.143-262.9,364.59Z" transform="translate(-23.032 -35.929)" fill="#fff"/>
    <path id="Path_21" data-name="Path 21" d="M-300.849,338.469c-.2-.467-.548-.361-.839-.386-.548-.048-.556-.444-.423-.786.206-.528.725-.277,1.088-.261.471.021,1.067-.306,1.4.308a2.026,2.026,0,0,1-1.083,2.642,3.085,3.085,0,0,1-3.575-.644,3.375,3.375,0,0,1-.217-3.788,2.8,2.8,0,0,1,3.159-1.077,2.3,2.3,0,0,1,1.08.551c.267.244.738.633.315,1.021a.777.777,0,0,1-1.219-.043,1.245,1.245,0,0,0-2.2.121,1.949,1.949,0,0,0,.3,2.676A1.423,1.423,0,0,0-300.849,338.469Z" transform="translate(-9.104 -27.125)" fill="#fff"/>
    <path id="Path_22" data-name="Path 22" d="M-279.6,339.977c-1.4.574-1.758-.41-2.277-1.161-.285-.412-.547-1.012-1.15-.888-.768.158-.308.85-.378,1.3s.043.969-.686.93c-.769-.042-.53-.62-.547-1.031a17.819,17.819,0,0,1,0-2.016c.06-.859-.419-2.17.237-2.473a6.1,6.1,0,0,1,3.2-.055c1.094.158,1.743,1.536.989,2.227-1.059.969-.412,1.553.076,2.3C-279.967,339.358-279.814,339.623-279.6,339.977Zm-2.777-3.169c.4-.062,1.091.074,1.038-.68-.048-.682-.7-.6-1.209-.622s-.909-.014-.89.691C-283.414,336.965-282.884,336.762-282.375,336.808Z" transform="translate(-16.286 -27.127)" fill="#fff"/>
    <path id="Path_23" data-name="Path 23" d="M-245.225,337.159c0-.877,0-1.4,0-1.913,0-.391.028-.717.557-.729s.743.209.726.739c-.025.777,0,1.554-.012,2.331s.034,1.559,1.02,1.6c1.04.042,1.05-.774,1.045-1.533-.006-.829.008-1.658-.008-2.486-.01-.473.224-.637.662-.645s.672.181.652.645a31.3,31.3,0,0,1-.179,3.715c-.193,1.18-1.2,1.445-2.268,1.418a1.905,1.905,0,0,1-2.112-1.64A10.536,10.536,0,0,1-245.225,337.159Z" transform="translate(-30.316 -27.172)" fill="#fff"/>
    <path id="Path_24" data-name="Path 24" d="M-260.074,337.287a2.66,2.66,0,0,1-2.807,2.977,2.707,2.707,0,0,1-2.77-2.894A2.73,2.73,0,0,1-262.8,334.4,2.606,2.606,0,0,1-260.074,337.287Zm-1.24-.021c-.1-.9-.349-1.752-1.48-1.785-1.241-.037-1.561.89-1.56,1.859,0,.909.348,1.818,1.455,1.831C-261.723,339.187-261.382,338.311-261.313,337.267Z" transform="translate(-23.065 -27.132)" fill="#fff"/>
    <path id="Path_25" data-name="Path 25" d="M-225.746,337.24v-.309c0-2.721,0-2.709,2.677-2.456a1.6,1.6,0,0,1,1.673,1.651,1.583,1.583,0,0,1-1.482,1.831c-1.068.09-1.94.15-1.662,1.59.09.466-.255.595-.681.592-.543,0-.523-.371-.524-.736C-225.748,338.682-225.746,337.961-225.746,337.24Zm3.038-.9a.793.793,0,0,0-.828-.821c-.393-.015-1.008-.259-.983.513.011.345-.257.9.379.96C-223.6,337.039-223,337.069-222.708,336.34Z" transform="translate(-37.23 -27.12)" fill="#fff"/>
    <path id="Path_26" data-name="Path 26" d="M-179.744,355.605c-1.015.149-1.624.013-1.615-1.3.008-1.235.47-1.409,1.544-1.425,1.117-.015,1.527.237,1.516,1.44C-178.309,355.474-178.717,355.807-179.744,355.605Z" transform="translate(-52.987 -33.69)" fill="#fff"/>
    <path id="Path_27" data-name="Path 27" d="M-264.549,355.611c-1.253.287-1.157-.55-1.237-1.448-.129-1.456.813-1.169,1.667-1.266,1.24-.141,1.243.537,1.3,1.473C-262.727,355.8-263.593,355.677-264.549,355.611Z" transform="translate(-23.013 -33.69)" fill="#fff"/>
  </g>
</svg>
