<svg xmlns="http://www.w3.org/2000/svg" width="238.167" height="124.028" viewBox="0 0 238.167 124.028">
  <g id="Group_40" data-name="Group 40" transform="translate(330.626 -100.972)">
    <path id="Path_85" data-name="Path 85" d="M-295.33,143.183c1.089.419,1.756.672,2.421.931,6.005,2.343,8.026,7.151,8.222,13.151.169,5.189-2.91,8.068-7.079,10.194a24.879,24.879,0,0,1-12.212,3.029c-7.781-.21-15.571-.1-23.357-.026-1.589.015-2.051-.386-1.922-2.037q1.725-22.069,3.269-44.155c.093-1.324.618-1.569,1.774-1.564,7.947.034,15.895-.037,23.841.051a19.979,19.979,0,0,1,7.679,1.867c3.449,1.494,6.26,3.391,6.367,7.819.111,4.616-1.821,7.662-5.948,9.469C-293.151,142.295-294.041,142.648-295.33,143.183ZM-310,162.717c1.571,0,2.776,0,3.98,0,4.192-.011,7.038-2.4,7.05-5.908.016-4.737-2.311-7.034-7.128-7.036h-2.891c-6.652,0-6.668,0-6.832,6.612-.05,2-.755,4.614.225,5.83C-314.422,163.672-311.682,162.454-310,162.717Zm2.48-31.674v.061c-1.444,0-2.887.019-4.33-.007-.925-.016-1.508.213-1.568,1.308-.151,2.8-.4,5.6-.577,8.4-.038.6-.265,1.526.671,1.5,3.493-.088,7.078.75,10.44-.864,2.689-1.292,3.631-3.295,3.03-6.338-.561-2.844-1.844-3.893-5.021-4.056C-305.757,131-306.641,131.043-307.523,131.043Z" fill="#fff"/>
    <path id="Path_86" data-name="Path 86" d="M-129.262,121.724c6.2-2.226,11.693-5.12,17.7-6.563a26.883,26.883,0,0,1,11.93-.428c3.279.692,6.215,2.41,6.981,5.565.783,3.223-.962,6.253-3.511,8.5-3.525,3.111-7.884,4.651-12.279,5.85a84.911,84.911,0,0,1-25.966,2.884c-2.56-.1-4.911-.323-5.136-3.668-.083-1.237-.88-.483-1.4-.394a3.019,3.019,0,0,1-3.76-2.887,59.605,59.605,0,0,1,1.6-16.953,30.562,30.562,0,0,1,4.613-9.723,7.006,7.006,0,0,1,11.144-.348,5,5,0,0,1,.981,3.121C-126.091,111.815-127.35,116.663-129.262,121.724Zm-4.458,11.121c8.851.311,17.591.053,25.948-3.215a21.5,21.5,0,0,0,8.654-5.882c1.15-1.325,1.1-2.106-.457-3.127-2.6-1.7-5.248-.875-7.928-.648C-117.875,120.855-126.266,125.808-133.72,132.845Zm-7.3-4.452c4.291-4.086,7.818-7.92,9.584-13.036a7.974,7.974,0,0,0,.525-4.244c-.3-1.411.26-3.6-1.351-4.014-2.024-.518-3.286,1.372-4.164,3C-139.391,115.606-140.159,121.672-141.023,128.393Z" fill="#fff"/>
    <path id="Path_87" data-name="Path 87" d="M-221.79,169.88a18.182,18.182,0,0,1-17.725-13.927,18.2,18.2,0,0,1,9.189-20.37,18.311,18.311,0,0,1,22.241,3.727c2.589,2.9,2.649,3.067-.443,5.256-5.632,3.988-11.381,7.81-17.011,11.8-1.426,1.011-2.2.535-2.819-.714-.546-1.1-2.326-2.056-.2-3.51,3.843-2.623,7.5-5.515,11.325-8.17,1.63-1.132,1.155-1.653-.248-2.372-4.128-2.113-9.173-.92-12.82,3.1-2.817,3.1-3.035,8.866-.485,12.826,4.31,6.692,14.863,6.117,18.635-.984.533-1,.683-2.713,2.038-2.691a20.522,20.522,0,0,1,5.883,1.07c.982.318.216,1.446.013,2.127A18.145,18.145,0,0,1-221.79,169.88Z" fill="#fff"/>
    <path id="Path_88" data-name="Path 88" d="M-261.141,169.88a18.175,18.175,0,0,1-17.879-14.343,18.257,18.257,0,0,1,10.3-20.481,18.417,18.417,0,0,1,21.976,5.115c1.343,1.711,1.277,2.772-.544,4q-8.883,5.991-17.638,12.168c-1.585,1.125-2.253.4-2.977-.856-.674-1.169-1.976-2.12.057-3.468,3.81-2.527,7.4-5.38,11.154-8,1.5-1.043,1.379-1.594-.17-2.4-4.091-2.117-9.121-.971-12.836,3.033-2.893,3.118-3.075,9-.4,13.025,4.134,6.222,14.438,5.957,18.168-.47a8.4,8.4,0,0,0,.888-1.705c.509-1.7,1.578-2.022,3.127-1.472a9.462,9.462,0,0,0,1.417.272c3.86.727,3.86.727,2.267,4.5A18.24,18.24,0,0,1-261.141,169.88Z" fill="#fff"/>
    <path id="Path_89" data-name="Path 89" d="M-134.617,147.233c.174,1.129-.674,1.764-1.275,2.468a69.4,69.4,0,0,1-16.639,13.759,141.889,141.889,0,0,1-22.915,11.131,2.154,2.154,0,0,1-2.753-.507,31.377,31.377,0,0,1-5.118-8.392c-.7-1.468.8-1.284,1.467-1.463a95.9,95.9,0,0,0,18.667-7.012c8.675-4.413,16.58-9.82,22.326-17.887.718-1.007,1.255-.879,2.127-.24C-135.958,141.118-135.118,144.079-134.617,147.233Z" fill="#fff"/>
    <path id="Path_90" data-name="Path 90" d="M-189.96,143.417c-.194-.963.4-1.232,1.193-1.4,12.034-2.563,21.973-8.718,30.224-17.724.7-.763,1.18-.809,1.984-.175,2.52,1.99,5.059,3.96,7.669,5.829,1.23.881.921,1.5.1,2.44A57.638,57.638,0,0,1-162.3,143.517a107.489,107.489,0,0,1-23.909,10.626c-1.787.571-2.333.275-2.474-1.678C-188.9,149.434-189.514,146.431-189.96,143.417Z" fill="#fff"/>
    <path id="Path_91" data-name="Path 91" d="M-130.279,157.769c1.868,3.819,1.826,7.608,1.992,11.356.045,1.006-.785,1.554-1.384,2.162-8.607,8.726-19.281,13.639-30.939,16.734a2.5,2.5,0,0,1-2.443-.6c-1.875-1.61-3.762-3.206-5.965-5.08C-154.121,177.082-140.711,170-130.279,157.769Z" fill="#fff"/>
    <path id="Path_92" data-name="Path 92" d="M-326.067,217.4c0,2.236-.089,4.138.024,6.029.127,2.147-1.369,1.436-2.434,1.525-1.167.1-2.169.238-2.142-1.581.094-6.417.023-12.836.054-19.254,0-.7-.409-1.862.855-1.839,1.079.02,2.586-.767,3.177.622.465,1.091.707.633,1.3.29,4.873-2.824,9.561-.705,10.625,4.829a12.83,12.83,0,0,1-.031,5.027C-315.8,218.6-320.453,220.551-326.067,217.4Zm7.009-7.445a8.745,8.745,0,0,0-.276-1.909,3.241,3.241,0,0,0-3.319-2.574,3.327,3.327,0,0,0-3.235,2.7,7.775,7.775,0,0,0-.179,2.136c-.017,3.227,1.408,5.287,3.62,5.283C-320.321,215.584-319.038,213.624-319.058,209.951Z" fill="#fff"/>
    <path id="Path_93" data-name="Path 93" d="M-291.955,211.958c.046,1.016.147,2.694.189,4.374.02.8,1.147,1.86.065,2.3-1.1.451-2.9.753-3.609-.21-.964-1.309-1.493-.576-2.277-.159a6.967,6.967,0,0,1-6.247.285,4.366,4.366,0,0,1-2.724-4.413,4.344,4.344,0,0,1,2.681-4.2,32.542,32.542,0,0,1,5.8-1.509c.72-.177,1.7-.218,1.613-1.383a1.689,1.689,0,0,0-1.76-1.62c-1.3-.133-2.6-.2-3.41,1.14a1.1,1.1,0,0,1-1.382.639c-.965-.324-2.459.124-2.834-.884-.4-1.066.663-2.053,1.456-2.826,2.316-2.255,8.605-2.336,11.053-.229a4.079,4.079,0,0,1,1.36,2.978C-291.877,207.923-291.955,209.609-291.955,211.958Zm-7.748,3.882a3.216,3.216,0,0,0,3.37-3.3c.027-.786.039-1.354-1.117-1.295-2.575.131-4.647,1.22-4.538,2.653C-301.885,215.255-301,215.824-299.7,215.84Z" fill="#fff"/>
    <path id="Path_94" data-name="Path 94" d="M-195.831,211.838c-1.2,0-2.4-.045-3.6.019-.57.031-1.373-.39-1.659.461a2.179,2.179,0,0,0,.512,1.793c1.2,1.953,3.684,2.254,4.976.4,1.454-2.085,3.054-.521,4.5-.363.888.1.141,1.073-.121,1.546-2.585,4.677-10.663,4.724-13.384,0a10.181,10.181,0,0,1-.091-10.123,6.829,6.829,0,0,1,6.5-3.762,7.88,7.88,0,0,1,7.891,8.919c-.123,1.013-.635,1.128-1.438,1.113C-193.108,211.82-194.47,211.838-195.831,211.838Zm-2.189-2.728c.908-.748,2.868,1.044,2.982-1.059.088-1.63-1.251-2.726-3.037-2.673-1.765.053-3.088,1.179-2.912,2.808C-200.808,209.848-199.023,208.548-198.02,209.11Z" fill="#fff"/>
    <path id="Path_95" data-name="Path 95" d="M-139.911,211.834c-1.2,0-2.411.076-3.607-.016-1.952-.152-2.013.743-1.263,2.121a3.025,3.025,0,0,0,5.16.573c.732-.82,3.694-1.11,4.489-.423.763.66.011,1.185-.257,1.648-1.661,2.876-4.348,3.532-7.424,3.344-2.881-.177-5.1-1.388-6.266-4.093a10.815,10.815,0,0,1,0-8.879c1.559-3.585,5.532-5.162,9.511-3.88,3.248,1.046,5.754,5.374,5.093,8.65-.175.872-.651.966-1.347.958C-137.185,211.823-138.548,211.833-139.911,211.834Zm-2.288-2.714c.973-.714,2.9.961,3.076-1.029.149-1.656-1.273-2.776-2.983-2.775a2.72,2.72,0,0,0-2.968,2.8C-144.948,209.938-143.132,208.484-142.2,209.12Z" fill="#fff"/>
    <path id="Path_96" data-name="Path 96" d="M-220.991,219.066c-3.566.116-6.131-.65-7.812-3.364-.709-1.144-.793-1.874.864-2.022,1.456-.13,3-.921,3.84,1.166a2,2,0,0,0,1.872.907c1.359.031,3.186.328,3.533-1.233.4-1.811-1.588-1.528-2.7-1.894-1.52-.5-3.092-.861-4.579-1.442a4.315,4.315,0,0,1-2.93-4.292,4.607,4.607,0,0,1,2.933-4.325c2.984-1.376,7.924-.99,9.822.928.713.72,2.157,1.848,1.122,2.668-.924.731-2.72,1.616-4.079.14a3.821,3.821,0,0,0-4.176-1.011c-.55.15-1.124.337-1.123,1.048,0,.676.51.979,1.069,1.134,1.544.429,3.112.775,4.646,1.234,3.627,1.088,5.08,2.757,4.754,5.366-.349,2.793-2.845,4.808-6.2,4.989A7.975,7.975,0,0,1-220.991,219.066Z" fill="#fff"/>
    <path id="Path_97" data-name="Path 97" d="M-244.66,219.066c-3.373.154-5.953-.758-7.607-3.587-.581-.993-.567-1.607.788-1.751,1.528-.163,2.9-.831,4.133,1.126.966,1.53,3,1.151,4.648.506a1.1,1.1,0,0,0,.721-1.135c-.028-.791-.586-1.091-1.229-1.273-1.771-.5-3.56-.94-5.318-1.478-2.294-.7-3.753-2.132-3.687-4.695.061-2.327,1.508-4.042,4.145-4.615,3.036-.66,6.088-.814,8.66,1.406.754.65,1.576,1.5,1.238,2.633-.189.635-3.682.827-4.191.209a3.692,3.692,0,0,0-3.894-1.226c-.7.136-1.539.312-1.553,1.216-.012.771.743.972,1.356,1.14,1.389.379,2.8.688,4.187,1.07,3.722,1.023,5.219,2.694,4.94,5.468s-2.762,4.789-6.163,4.982C-243.966,219.089-244.448,219.066-244.66,219.066Z" fill="#fff"/>
    <path id="Path_98" data-name="Path 98" d="M-277.35,196.271c0,1.553.041,2.59-.01,3.623-.068,1.367-.144,2.561,1.884,2.363,1.454-.141.962,1.141,1.044,1.92.1.94.052,1.876-1.281,1.724-1.5-.171-1.711.634-1.655,1.865.073,1.6.028,3.209.015,4.814-.013,1.511-.136,2.982,2.208,2.67,1.287-.171.788,1.11.987,1.771a1.33,1.33,0,0,1-.922,1.871c-3.711,1.369-6.692-.547-6.8-4.47-.056-2,0-4.012-.016-6.017-.009-1.139.351-2.323-1.491-2.679-1.013-.2-.711-3.051.389-3.472.55-.211,1.179-.232,1.07-.97C-282.42,197.986-279.5,197.883-277.35,196.271Z" fill="#fff"/>
    <path id="Path_99" data-name="Path 99" d="M-177.274,117.706a5.17,5.17,0,0,0-1.484-2.973,14.99,14.99,0,0,1-2.691-3.668,7.052,7.052,0,0,1,2.73-9.218c2.086-1.286,4.838-.149,6.574,2.718.588.97-.46,4.1-1.635,4.882-.132.087-.284.229-.416.219-4.421-.357-1.622,1.562-.836,2.739a7.554,7.554,0,0,1,1.344,5.926c-.175.818-.193,2.351-1.383,2.032C-176,120.115-178.115,120.105-177.274,117.706Z" fill="#fff"/>
    <path id="Path_100" data-name="Path 100" d="M-191.112,115.793c1.344,1,2.851,1.428,3.948,2.5a6.625,6.625,0,0,1,2.11,4.193c.061.648.342,1.637-.8,1.6-.772-.027-1.976.627-2.276-.56-.521-2.068-2.187-2.574-3.8-3.266-4.508-1.939-6.073-5.555-4.336-9.839.7-1.726,1.985-2.655,3.723-2.266,1.505.337,3.543.393,3.8,2.6.2,1.778.716,3.8-1.873,4.475C-190.743,115.258-190.824,115.453-191.112,115.793Z" fill="#fff"/>
    <path id="Path_101" data-name="Path 101" d="M-166.915,210.484c0-2.084-.039-4.168.022-6.249.02-.7-.465-1.85.731-1.942,1.118-.086,2.758-.731,3.308.4.673,1.379.887.47,1.348.088a3.332,3.332,0,0,1,2.634-.943c1.012.153,2.726-.078,2.417,1.465-.214,1.069.282,3.564-2.614,2.743-2.035-.576-2.926,1.066-3.054,2.8a61.422,61.422,0,0,0-.13,7.921c.116,2.1-1.02,2.031-2.511,2.1-1.645.072-2.306-.39-2.185-2.129C-166.8,214.657-166.915,212.567-166.915,210.484Z" fill="#fff"/>
    <path id="Path_102" data-name="Path 102" d="M-138.573,191.708c-1.2,0-2.4.06-3.592-.024-.677-.047-1.774.536-1.863-.785-.065-.978-.36-2.073.946-2.664a36.172,36.172,0,0,0,9.257-5.875,2.414,2.414,0,0,1,2.5-.23c1.044.317.569,1.371.53,2.078a17.794,17.794,0,0,1-1.838,6.4,1.7,1.7,0,0,1-1.865,1.116C-135.856,191.666-137.215,191.708-138.573,191.708Z" fill="#fff"/>
    <path id="Path_103" data-name="Path 103" d="M-181.284,210.6c0-2.246.1-4.5-.029-6.736-.116-2.025,1.216-1.636,2.371-1.658,1.216-.023,2.365-.241,2.3,1.74-.14,4.408-.121,8.825-.009,13.234.051,2.012-1.2,1.641-2.371,1.671-1.246.032-2.424.18-2.3-1.755C-181.175,214.934-181.284,212.761-181.284,210.6Z" fill="#fff"/>
    <path id="Path_104" data-name="Path 104" d="M-261.331,210.565c0,2.244-.058,4.489.018,6.73.064,1.882-1.256,1.487-2.3,1.505-1,.018-2.143.28-2.122-1.428.056-4.566.069-9.134-.006-13.7-.032-1.945,1.291-1.384,2.3-1.452,1.156-.079,2.249-.186,2.145,1.617C-261.429,206.073-261.331,208.322-261.331,210.565Z" fill="#fff"/>
    <path id="Path_105" data-name="Path 105" d="M-298.576,183.717c-.311-.724-.85-.56-1.3-.6-.849-.075-.862-.689-.656-1.218.32-.819,1.124-.43,1.687-.4.73.033,1.654-.474,2.166.477a3.14,3.14,0,0,1-1.679,4.1c-2,.673-3.976.734-5.543-1a5.232,5.232,0,0,1-.336-5.873c1.192-1.82,2.986-2.017,4.9-1.67a3.559,3.559,0,0,1,1.674.854c.414.378,1.144.981.489,1.583a1.2,1.2,0,0,1-1.89-.066,1.931,1.931,0,0,0-3.4.188,3.022,3.022,0,0,0,.465,4.149C-300.758,185.3-299.558,184.885-298.576,183.717Z" fill="#fff"/>
    <path id="Path_106" data-name="Path 106" d="M-276.764,186.051c-2.168.89-2.726-.636-3.53-1.8-.442-.639-.848-1.569-1.783-1.377-1.19.245-.477,1.318-.586,2.011-.112.713.067,1.5-1.064,1.442-1.192-.065-.821-.961-.848-1.6a27.63,27.63,0,0,1,0-3.126c.093-1.332-.65-3.364.368-3.834,1.381-.638,3.311-.324,4.958-.086,1.7.245,2.7,2.382,1.533,3.452-1.642,1.5-.639,2.408.118,3.562C-277.336,185.092-277.1,185.5-276.764,186.051Zm-4.306-4.913c.618-.1,1.691.115,1.609-1.054-.074-1.057-1.078-.937-1.874-.964-.775-.027-1.41-.021-1.38,1.072C-282.681,181.382-281.859,181.067-281.07,181.138Z" fill="#fff"/>
    <path id="Path_107" data-name="Path 107" d="M-245.224,181.613c0-1.36.005-2.163,0-2.966-.006-.606.043-1.111.863-1.13s1.152.324,1.125,1.145c-.039,1.2,0,2.409-.018,3.614-.013,1.183.052,2.417,1.581,2.479,1.613.065,1.628-1.2,1.62-2.376-.009-1.285.012-2.57-.013-3.854-.015-.734.348-.988,1.027-1,.7-.011,1.042.281,1.011,1a48.529,48.529,0,0,1-.278,5.76c-.3,1.829-1.859,2.24-3.516,2.2-1.712-.042-2.978-.733-3.274-2.543A16.331,16.331,0,0,1-245.224,181.613Z" fill="#fff"/>
    <path id="Path_108" data-name="Path 108" d="M-257,181.874c.033,2.857-1.653,4.644-4.352,4.616a4.2,4.2,0,0,1-4.3-4.487,4.232,4.232,0,0,1,4.424-4.6C-258.608,177.423-257.035,179.088-257,181.874Zm-1.922-.032c-.158-1.4-.541-2.716-2.294-2.768-1.924-.057-2.42,1.38-2.418,2.882,0,1.409.54,2.818,2.256,2.839C-259.561,184.819-259.032,183.462-258.926,181.842Z" fill="#fff"/>
    <path id="Path_109" data-name="Path 109" d="M-225.746,181.82v-.479c0-4.218,0-4.2,4.15-3.807a2.486,2.486,0,0,1,2.593,2.56,2.454,2.454,0,0,1-2.3,2.839c-1.656.139-3.007.233-2.576,2.465.139.722-.4.922-1.055.918-.842,0-.811-.575-.813-1.141C-225.749,184.056-225.746,182.938-225.746,181.82Zm4.71-1.4a1.23,1.23,0,0,0-1.283-1.273c-.609-.024-1.563-.4-1.524.8.017.535-.4,1.4.587,1.488C-222.421,181.508-221.483,181.555-221.036,180.424Z" fill="#fff"/>
    <path id="Path_110" data-name="Path 110" d="M-178.855,200.106c-1.573.231-2.518.02-2.5-2.017.013-1.915.728-2.185,2.394-2.209,1.731-.024,2.367.368,2.35,2.233C-176.631,199.9-177.263,200.419-178.855,200.106Z" fill="#fff"/>
    <path id="Path_111" data-name="Path 111" d="M-263.862,200.115c-1.943.445-1.794-.853-1.918-2.245-.2-2.257,1.26-1.812,2.585-1.962,1.923-.218,1.927.833,2.019,2.284C-261.037,200.4-262.379,200.217-263.862,200.115Z" fill="#fff"/>
  </g>
</svg>
