<svg xmlns="http://www.w3.org/2000/svg" width="1498.5" height="111.349" viewBox="0 0 1498.5 111.349">
  <g id="Group_5" data-name="Group 5" transform="translate(46 -682.651)">
    <path id="Path_32" data-name="Path 32" d="M1077.5,701v93h375V702c0-.723-3.488-2.892-4-3.287a104.494,104.494,0,0,0-10.844-7.377c-12.343-7.294-24.984-11.471-38.933-6.554-11.437,4.031-21.217,12.385-30.225,20.218-4.566,1.712-8.372,3.957-13.024,1.218-3.333-1.963-5.5-5.837-8.8-7.511a9.771,9.771,0,0,0-8.455.151c-1.585.759-5.288,5.142-6.72,5.142-4,0-9,4-19-10-4-2-9-7-19,4-4.631,5.094-16.643.079-20.815-3.205-3.668-2.887-6.243-6.312-10.517-8.465A30.736,30.736,0,0,0,1248.5,683c-7,0-16,0-35,13-15,10-18,16-25,10-6-6-11-15-24-3-1,1-7,4-18-8-4-2-7-7-20,4-5.679,0-11.348-.719-15.976-4.3a15.658,15.658,0,0,0-2.122-1.53c-3.058-1.631-6.318-.943-9.072.773a29.982,29.982,0,0,0-4.29,3.438c-1.432,1.312-3.821,5.042-5.54,5.615C1086.5,704,1080.5,704,1077.5,701Z" fill="#fff"/>
    <path id="Path_33" data-name="Path 33" d="M703,701v93h375V702c0-.723-3.488-2.892-4-3.287a104.494,104.494,0,0,0-10.844-7.377c-12.343-7.294-24.984-11.471-38.933-6.554C1012.788,688.813,1003.008,697.167,994,705c-4.566,1.712-8.372,3.957-13.024,1.218-3.333-1.963-5.5-5.837-8.8-7.511a9.771,9.771,0,0,0-8.455.151c-1.585.759-5.288,5.142-6.72,5.142-4,0-9,4-19-10-4-2-9-7-19,4-4.631,5.094-16.643.079-20.815-3.205-3.668-2.887-6.243-6.312-10.517-8.465A30.736,30.736,0,0,0,874,683c-7,0-16,0-35,13-15,10-18,16-25,10-6-6-11-15-24-3-1,1-7,4-18-8-4-2-7-7-20,4-5.679,0-11.348-.719-15.976-4.3a15.654,15.654,0,0,0-2.122-1.53c-3.058-1.631-6.318-.943-9.072.773a29.983,29.983,0,0,0-4.29,3.438c-1.432,1.312-3.821,5.042-5.54,5.615C712,704,706,704,703,701Z" fill="#fff"/>
    <path id="Path_34" data-name="Path 34" d="M328.5,701v93h375V702c0-.723-3.488-2.892-4-3.287a104.507,104.507,0,0,0-10.844-7.377c-12.343-7.294-24.984-11.471-38.933-6.554C638.288,688.813,628.508,697.167,619.5,705c-4.566,1.712-8.372,3.957-13.024,1.218-3.333-1.963-5.5-5.837-8.8-7.511a9.771,9.771,0,0,0-8.455.151c-1.585.759-5.288,5.142-6.72,5.142-4,0-9,4-19-10-4-2-9-7-19,4-4.631,5.094-16.643.079-20.815-3.205-3.668-2.887-6.243-6.312-10.517-8.465A30.736,30.736,0,0,0,499.5,683c-7,0-16,0-35,13-15,10-18,16-25,10-6-6-11-15-24-3-1,1-7,4-18-8-4-2-7-7-20,4-5.679,0-11.348-.719-15.976-4.3a15.655,15.655,0,0,0-2.122-1.53c-3.058-1.631-6.318-.943-9.072.773a29.982,29.982,0,0,0-4.29,3.438c-1.432,1.312-3.821,5.042-5.54,5.615C337.5,704,331.5,704,328.5,701Z" fill="#fff"/>
    <path id="Path_35" data-name="Path 35" d="M-46,702v92H329V702c0-.723-3.488-2.892-4-3.287a104.5,104.5,0,0,0-10.844-7.377c-12.343-7.294-24.984-11.471-38.933-6.554C263.788,688.813,254.008,697.167,245,705c-4.566,1.712-8.372,3.957-13.024,1.218-3.333-1.963-5.5-5.837-8.8-7.511a9.771,9.771,0,0,0-8.455.151c-1.585.759-5.288,5.142-6.72,5.142-4,0-9,4-19-10-4-2-9-7-19,4-4.631,5.094-16.643.079-20.815-3.205-3.668-2.887-6.243-6.312-10.517-8.465A30.736,30.736,0,0,0,125,683c-7,0-16,0-35,13-15,10-18,16-25,10-6-6-11-15-24-3-1,1-7,4-18-8-4-2-7-7-20,4-5.679,0-11.348-.719-15.976-4.3a15.656,15.656,0,0,0-2.122-1.53c-3.058-1.631-6.318-.943-9.072.773a29.981,29.981,0,0,0-4.29,3.438C-29.892,698.7-32.281,702.427-34,703-37,704-43,705-46,702Z" fill="#fff"/>
  </g>
</svg>
