<svg xmlns="http://www.w3.org/2000/svg" width="1555.829" height="143.501" viewBox="0 0 1555.829 143.501">
  <g id="Group_15" data-name="Group 15" transform="translate(0 -1146)">
    <g id="Group_12" data-name="Group 12" transform="translate(0.033 1146.075)">
      <path id="Path_36" data-name="Path 36" d="M104.281-.075a39.9,39.9,0,0,1,9.64,22.189,345.224,345.224,0,0,1,.271,57.8c-.445,5.633-.532,11.245,2.518,16.338,4.383,7.32,13.85,7.378,18.361.2,3.366-5.359,2.816-11.039,1.528-16.767-4.879-21.7-.188-42.936,3.328-64.2a7.963,7.963,0,0,1,5.655-6.663c6.781-1.851,13.607-2.407,20.337.186,3.474,1.339,7.618,2.377,8.758,6.354,1.619,5.654,2.818,11.45,1.714,17.488a22.7,22.7,0,0,0,.341,6.878c.517,3.894,2.7,6.317,6.8,6.625,4.2.315,5.986-2.506,6.924-5.836a29.674,29.674,0,0,0,.689-10.8c-.583-6.4-1.064-12.81-1.479-19.222-.192-2.967.568-5.618,3.614-6.981,3.17-1.418,5.2.777,6.824,2.7,3.825,4.55,8.664,5.772,14.288,5.276a31.264,31.264,0,0,1,4.488-.037c11.983.671,19.868,8.852,19.907,20.681.014,4.286-.373,8.546-.736,12.822-.525,6.179-2.425,12.358-.432,18.633,1.529,4.814,4.717,7.436,9.779,7.73,5.171.3,7.948-2.651,9.5-7.124a33.016,33.016,0,0,0,1.175-15.146c-.948-7.684-2.471-15.313-2.437-23.1a24.592,24.592,0,0,1,4.4-14.452c3.741-5.277,12.611-8.282,16.1-4.687C281.569,12.4,287.714,17.7,289.62,25.938c1.8,7.807,1.539,15.71,1.89,23.6.1,2.151.293,4.756,3.127,4.794,2.553.035,2.842-2.49,3.011-4.409.391-4.428.489-8.881.822-13.315.288-3.83,4.274-9.149,6.854-8.721,4.4.732,4.764,4.671,5.138,8.031a83.306,83.306,0,0,1-.306,19.737c-.848,6.695-1.9,13.408-.669,20.184.558,3.064,1.448,6.211,5.221,6.132,3.484-.072,4.316-3.06,4.768-5.984a50.088,50.088,0,0,0,.432-10.345c-.414-7.9-1.778-15.736-1.472-23.682A51.559,51.559,0,0,1,329.525,11.8c5.835-7.545,12.85-6.755,17.042,1.669.367.737.7,1.492,1.012,2.254,10.851,26.758,12.783,54.3,7.4,82.492-1.172,6.14-2.565,12.281-1.725,18.611.956,7.209,5,11.083,11.181,10.726,5.661-.327,9.658-4.8,9.674-11.713a113.091,113.091,0,0,0-1.333-14.255c-2.074-16.528-4.219-33.013-2.449-49.766,1.036-9.8,4.111-17.708,13.717-22.4,6.111-2.984,7.93-2.772,10.248,3.792a35.471,35.471,0,0,1,1.193,5.29c1.632,8.707-.818,17-2.608,25.37-.8,3.724-.68,7.333,2.783,9.832,2.851,2.058,5.958,1.919,8.934.219,3.834-2.19,5.638-5.575,5.076-9.927a70.557,70.557,0,0,0-1.708-7.2c-2.361-9.9-2.189-19.608,2.329-28.956.7-1.453,1.424-3.338,3.522-2.769,1.982.537,1.984,2.428,1.845,4.11-.571,6.9-1.262,13.785-1.754,20.688-.689,9.659-2.941,19.326-.384,29,1.145,4.331,3.645,7.471,8.713,7.284,5.11-.189,6.5-3.872,7.294-7.977,1.337-6.925.692-13.923-.612-20.664-1.426-7.371,1.211-12.505,6.761-16.631A23.34,23.34,0,0,0,443.907,29.4a29.445,29.445,0,0,1,6-10.725c4.973-5.323,10.506-4.913,14.409,1.2a38.644,38.644,0,0,1,6.059,16.592,310.955,310.955,0,0,1,.507,60.238c-.415,4.858-.215,9.6,1.793,14.057a10.807,10.807,0,0,0,10.153,6.787c4.565.131,7.371-2.44,9.494-6.095,2.489-4.287,2.574-9,1.452-13.469a88.175,88.175,0,0,1-1.732-33.841c1.43-10.44,1.485-21.076,4.16-31.336,3.048-11.693,9.386-20.842,21.769-24.133C526.458,6.42,532.7,10.806,534.4,19.283a40.855,40.855,0,0,1,.315,12.789c-.878,7.688-2.318,15.362-1.377,23.148.463,3.825,2.463,6.512,6.567,6.939,4.333.452,6.327-2.271,7.351-5.919,1.32-4.706.773-9.484.365-14.25-.464-5.416-1.02-10.829-1.265-16.256-.124-2.758.949-5.26,3.75-6.456,2.887-1.232,4.937.641,6.449,2.512,3.865,4.781,8.885,5.948,14.681,5.557a33.566,33.566,0,0,1,6.964.227c10.141,1.45,17.016,9.039,17.265,19.031a119.4,119.4,0,0,1-.8,15.3c-.541,5.218-1.817,10.417-.739,15.736,1.185,5.849,4.579,9.213,9.824,9.522s8.374-2.214,10.225-8.193c1.553-5.012,1.283-10.11.715-15.205-.693-6.221-1.581-12.422-2.243-18.646a26.369,26.369,0,0,1,3.823-17.062c3.74-6.023,13.373-9.179,17.133-5.106,6.194,6.71,13.065,13.2,13.861,23.315.376,4.772.71,9.518.717,14.3a41.028,41.028,0,0,0,.523,6.883c.254,1.473,1.179,2.867,2.991,2.81,1.6-.05,2.134-1.417,2.538-2.691,1.273-4.016.838-8.175.936-12.283.068-2.838.177-5.631,2.2-7.918,1.509-1.709,2.806-4.123,5.5-3.6,2.847.55,3.676,3.192,4.151,5.64a56.439,56.439,0,0,1,.6,17.231c-.968,8.5-2.558,17.011-1.078,25.594.481,2.786,1.508,5.808,5.171,5.6,3.242-.188,4.03-2.874,4.6-5.616,1.707-8.263.169-16.471-.665-24.618-1.346-13.14,1.116-25.235,8.227-36.372,2.784-4.359,5.743-8.977,11.8-8.575,6.163.409,7.555,5.818,9.357,10.345,10.558,26.524,12.231,53.8,6.76,81.643a100.864,100.864,0,0,0-1.831,14.206c-.329,6.277,1.649,11.227,7.158,14.585h6.989c5.653-3.332,7.575-8.453,6.9-14.651-1.068-9.823-2.372-19.621-3.417-29.446a144.113,144.113,0,0,1,.552-37.466c.981-6.327,3.716-11.671,9.8-14.607,7.118-3.435,11.938-9.285,16.913-15.061,2.523-2.929,5.832-4.414,9.825-3.117,4.076,1.324,7.038,3.838,7.671,8.24a35.277,35.277,0,0,1,.372,7.865c-.94,11.332-2.023,22.653-3.141,33.97a46.758,46.758,0,0,0,.633,14.754c1.144,5.2,4.326,8.135,8.613,8.1,5.425-.047,6.976-3.85,7.65-8.138,1.322-8.412-.106-16.766-1.023-25.1-1.082-9.835-2.3-19.658-1.653-29.574.6-9.223,5.826-14.845,14.192-15.511V-.075ZM305.2,19.09c-2.914-.332-4.946-2.044-4.7-5.225.207-2.7,2.249-3.443,4.628-3.2,2.893.3,4.262,2.149,4.578,4.818C309.322,18.181,307.566,19.36,305.2,19.09Zm95.858,5.627c-2.918-.245-4.111-2.677-4.574-5.169-.4-2.134,1.12-3.235,3.044-3.745,2.828.658,4.572,2.311,4.543,5.146C404.053,22.758,403.443,24.917,401.058,24.717Zm29.547,7.461c-3.631.317-3.973-3.186-4.011-6.54-.366-3.256,1.76-4.711,5.034-4.775,2.607-.051,4.74,1.1,4.493,4.036C435.83,28.36,434.23,31.861,430.605,32.178Zm154.77-18.96a10.065,10.065,0,0,1-7.8,2.645c-6.959-.267-10.92-3.579-10.479-8.4a4.737,4.737,0,0,1,2.332-4.087,3.427,3.427,0,0,1,4.476.912c2.51,2.851,5.7,2.907,9.085,2.655,1.6-.119,3.533-.524,4.243,1.525C587.918,10.436,586.744,11.943,585.375,13.218Zm76.609,21.715c-2.774-.189-4.685-1.826-4.859-4.679-.165-2.692,1.705-3.658,3.865-3.847,3.407.219,5.336,2.006,5.422,4.949C666.487,33.906,664.372,35.1,661.984,34.933Z" fill="#f59623"/>
      <path id="Path_37" data-name="Path 37" d="M14.285,5.878c2.6,1.039,5.085,2.034,8.079,1.983C31.5,7.7,37.058,12.38,38.611,21.258A43.738,43.738,0,0,1,38.4,37.49c-.744,3.716-1.735,7.389-2.331,11.126-.98,6.148,1.678,10.248,6.653,10.667,5.344.45,10.159-4.131,10.335-9.74.085-2.71-.92-5.17-1.556-7.717-2.373-9.5-2.6-18.9,1.33-28.1.77-1.8,1.257-4.247,3.413-4.52,2.459-.311,3.512,2.158,4.651,3.9,1.623,2.481,2.962,5.142,4.528,7.662,4.51,7.259,10.248,7.967,16.212,1.884a19.017,19.017,0,0,0,3.994-5.607C88.175,11.065,90.438,4.973,95.766.121H-.033C5.147,1.142,9.531,3.98,14.285,5.878Zm60.43-.843c2.617-.137,4.857,1,4.633,3.907-.264,3.415-1.764,6.986-5.446,7.4s-3.81-3.355-4.458-5.966C69.406,6.787,71.494,5.2,74.715,5.035Z" fill="#f59623"/>
    </g>
    <g id="Group_13" data-name="Group 13" transform="translate(0.033 1146.075)">
      <path id="Path_38" data-name="Path 38" d="M757.967-.075V23.677c8.366.666,13.587,6.288,14.192,15.511.651,9.916-.57,19.739-1.652,29.574-.918,8.339-2.346,16.693-1.024,25.1.674,4.288,2.225,8.091,7.651,8.138,4.287.037,7.468-2.894,8.612-8.1a46.759,46.759,0,0,0,.634-14.754c-1.119-11.317-2.2-22.638-3.142-33.97a35.34,35.34,0,0,1,.373-7.865c.633-4.4,3.595-6.916,7.671-8.24,3.993-1.3,7.3.188,9.824,3.117,4.976,5.776,9.795,11.626,16.914,15.061,6.084,2.936,8.82,8.28,9.8,14.607a144.111,144.111,0,0,1,.551,37.466c-1.045,9.825-2.349,19.623-3.416,29.446-.674,6.2,1.248,11.319,6.9,14.651h6.989c5.51-3.358,7.487-8.308,7.159-14.585a100.856,100.856,0,0,0-1.832-14.206c-5.471-27.844-3.8-55.119,6.76-81.643,1.8-4.527,3.194-9.936,9.357-10.345,6.057-.4,9.016,4.216,11.8,8.575,7.111,11.137,9.574,23.232,8.228,36.372-.835,8.147-2.372,16.355-.666,24.618.566,2.742,1.355,5.428,4.6,5.616,3.663.212,4.69-2.81,5.17-5.6,1.48-8.583-.11-17.091-1.077-25.594a56.439,56.439,0,0,1,.6-17.231c.475-2.448,1.3-5.09,4.15-5.64,2.7-.522,3.995,1.892,5.5,3.6,2.018,2.287,2.127,5.08,2.194,7.918.1,4.108-.336,8.267.936,12.283.4,1.274.938,2.641,2.538,2.691,1.812.057,2.737-1.337,2.991-2.81a41.028,41.028,0,0,0,.524-6.883c.006-4.783.341-9.529.717-14.3.795-10.11,7.667-16.6,13.86-23.315,3.76-4.073,13.394-.917,17.134,5.106a26.375,26.375,0,0,1,3.822,17.062c-.662,6.224-1.549,12.425-2.243,18.646-.568,5.1-.837,10.193.715,15.205,1.852,5.979,4.977,8.5,10.225,8.193s8.639-3.673,9.824-9.522c1.079-5.319-.2-10.518-.739-15.736a119.572,119.572,0,0,1-.8-15.3c.248-9.992,7.124-17.581,17.264-19.031a33.575,33.575,0,0,1,6.965-.227c5.8.391,10.816-.776,14.68-5.557,1.513-1.871,3.563-3.744,6.45-2.512,2.8,1.2,3.874,3.7,3.749,6.456-.244,5.427-.8,10.84-1.264,16.256-.408,4.766-.956,9.544.365,14.25,1.024,3.648,3.017,6.371,7.351,5.919,4.1-.427,6.1-3.114,6.566-6.939.941-7.786-.5-15.46-1.376-23.148a40.827,40.827,0,0,1,.315-12.789c1.7-8.477,7.941-12.863,16.422-10.609,12.384,3.291,18.721,12.44,21.77,24.133,2.675,10.26,2.729,20.9,4.159,31.336a88.154,88.154,0,0,1-1.732,33.841c-1.121,4.469-1.037,9.182,1.453,13.469,2.122,3.655,4.928,6.226,9.493,6.095a10.809,10.809,0,0,0,10.154-6.787c2.007-4.462,2.208-9.2,1.792-14.057a310.953,310.953,0,0,1,.507-60.238,38.633,38.633,0,0,1,6.06-16.592c3.9-6.113,9.435-6.523,14.408-1.2a29.443,29.443,0,0,1,6.005,10.725,23.336,23.336,0,0,0,8.234,11.478c5.55,4.126,8.186,9.26,6.76,16.631-1.3,6.741-1.948,13.739-.611,20.664.792,4.105,2.184,7.788,7.293,7.977,5.068.187,7.568-2.953,8.713-7.284,2.558-9.677.306-19.344-.383-29-.493-6.9-1.184-13.791-1.755-20.688-.139-1.682-.136-3.573,1.845-4.11,2.1-.569,2.82,1.316,3.522,2.769,4.519,9.348,4.691,19.057,2.329,28.956a70.581,70.581,0,0,0-1.708,7.2c-.562,4.352,1.243,7.737,5.077,9.927,2.975,1.7,6.082,1.839,8.933-.219,3.463-2.5,3.579-6.108,2.783-9.832-1.79-8.368-4.24-16.663-2.608-25.37a35.47,35.47,0,0,1,1.194-5.29c2.318-6.564,4.137-6.776,10.247-3.792,9.607,4.691,12.681,12.6,13.717,22.4,1.771,16.753-.375,33.238-2.448,49.766a113.286,113.286,0,0,0-1.334,14.255c.016,6.914,4.013,11.386,9.675,11.713,6.176.357,10.225-3.517,11.181-10.726.839-6.33-.553-12.471-1.726-18.611-5.384-28.2-3.453-55.734,7.4-82.492.309-.762.645-1.517,1.011-2.254,4.192-8.424,11.207-9.214,17.042-1.669a51.552,51.552,0,0,1,11.089,30.162c.306,7.946-1.057,15.783-1.472,23.682a50.088,50.088,0,0,0,.432,10.345c.452,2.924,1.285,5.912,4.769,5.984,3.772.079,4.662-3.068,5.22-6.132,1.235-6.776.18-13.489-.668-20.184a83.3,83.3,0,0,1-.307-19.737c.374-3.36.733-7.3,5.138-8.031,2.58-.428,6.566,4.891,6.854,8.721.333,4.434.431,8.887.822,13.315.169,1.919.458,4.444,3.012,4.409,2.833-.038,3.031-2.643,3.127-4.794.35-7.887.084-15.79,1.89-23.6,1.9-8.24,8.05-13.539,13.473-19.122,3.491-3.6,12.361-.59,16.1,4.687a24.593,24.593,0,0,1,4.4,14.452c.034,7.786-1.489,15.415-2.437,23.1a33,33,0,0,0,1.174,15.146c1.555,4.473,4.332,7.424,9.5,7.124,5.062-.294,8.25-2.916,9.779-7.73,1.993-6.275.093-12.454-.432-18.633-.363-4.276-.75-8.536-.736-12.822.039-11.829,7.925-20.01,19.907-20.681a31.279,31.279,0,0,1,4.489.037c5.623.5,10.463-.726,14.287-5.276,1.621-1.928,3.654-4.123,6.824-2.7,3.046,1.363,3.806,4.014,3.614,6.981-.415,6.412-.9,12.822-1.478,19.222a29.653,29.653,0,0,0,.688,10.8c.939,3.33,2.727,6.151,6.924,5.836,4.107-.308,6.286-2.731,6.8-6.625a22.693,22.693,0,0,0,.341-6.878c-1.1-6.038.1-11.834,1.715-17.488,1.139-3.977,5.283-5.015,8.757-6.354,6.73-2.593,13.556-2.037,20.338-.186a7.965,7.965,0,0,1,5.655,6.663c3.515,21.261,8.206,42.493,3.327,64.2-1.287,5.728-1.837,11.408,1.529,16.767,4.51,7.181,13.978,7.123,18.361-.2,3.05-5.093,2.963-10.705,2.517-16.338a345.319,345.319,0,0,1,.272-57.8,39.9,39.9,0,0,1,9.64-22.189Zm488.1,15.56c.315-2.669,1.684-4.521,4.577-4.818,2.379-.245,4.422.5,4.628,3.2.243,3.181-1.789,4.893-4.7,5.225C1248.2,19.36,1246.442,18.181,1246.062,15.485Zm-94.37,5.464c-.029-2.835,1.716-4.488,4.543-5.146,1.924.51,3.442,1.611,3.045,3.745-.463,2.492-1.656,4.924-4.574,5.169C1152.321,24.917,1151.711,22.758,1151.692,20.949Zm-32.05,3.95c-.247-2.937,1.887-4.087,4.493-4.036,3.275.064,5.4,1.519,5.035,4.775-.038,3.354-.38,6.857-4.012,6.54S1119.934,28.36,1119.642,24.9ZM968.528,8.469c.71-2.049,2.642-1.644,4.242-1.525,3.385.252,6.576.2,9.085-2.655a3.427,3.427,0,0,1,4.476-.912,4.737,4.737,0,0,1,2.332,4.087c.441,4.82-3.519,8.132-10.479,8.4a10.062,10.062,0,0,1-7.8-2.645C969.019,11.943,967.846,10.436,968.528,8.469ZM889.351,31.356c.086-2.943,2.015-4.73,5.422-4.949,2.16.189,4.031,1.155,3.866,3.847-.175,2.853-2.085,4.49-4.859,4.679C891.392,35.1,889.276,33.906,889.351,31.356Z" fill="#f59623"/>
      <path id="Path_39" data-name="Path 39" d="M1555.8.121H1460c5.329,4.852,7.592,10.944,10.137,16.926a19.015,19.015,0,0,0,3.994,5.607c5.964,6.083,11.7,5.375,16.212-1.884,1.566-2.52,2.906-5.181,4.529-7.662,1.139-1.741,2.191-4.21,4.651-3.9,2.155.273,2.642,2.719,3.412,4.52,3.933,9.2,3.7,18.6,1.331,28.1-.637,2.547-1.642,5.007-1.556,7.717.176,5.609,4.99,10.19,10.334,9.74,4.975-.419,7.633-4.519,6.653-10.667-.595-3.737-1.587-7.41-2.331-11.126a43.759,43.759,0,0,1-.211-16.232c1.554-8.878,7.114-13.554,16.248-13.4,2.993.051,5.474-.944,8.078-1.983C1546.232,3.98,1550.616,1.142,1555.8.121Zm-69.477,10.253c-.647,2.611-.774,6.378-4.458,5.966s-5.181-3.983-5.445-7.4c-.225-2.9,2.015-4.044,4.632-3.907C1484.27,5.2,1486.357,6.787,1486.319,10.374Z" fill="#f59623"/>
    </g>
  </g>
</svg>
