<svg xmlns="http://www.w3.org/2000/svg" width="54.366" height="47.239" viewBox="0 0 54.366 47.239">
  <g id="Component_30_16" data-name="Component 30 – 16" transform="translate(0 0)">
    <g id="Group_24" data-name="Group 24" transform="translate(-1228.403 -3204.25)">
      <g id="Group_23" data-name="Group 23">
        <g id="Group_75" data-name="Group 75" transform="translate(756.232 2791.366)">
          <path id="Path_1365" data-name="Path 1365" d="M499.625,423.679c3.224-1.158,6.084-2.663,9.21-3.413a13.966,13.966,0,0,1,6.207-.223c1.705.36,3.233,1.253,3.632,2.9a4.586,4.586,0,0,1-1.827,4.423,15.467,15.467,0,0,1-6.389,3.044,44.188,44.188,0,0,1-13.508,1.5c-1.331-.055-2.554-.168-2.671-1.908-.043-.644-.458-.252-.727-.206a1.57,1.57,0,0,1-1.956-1.5,31.017,31.017,0,0,1,.832-8.821,15.887,15.887,0,0,1,2.4-5.057,3.644,3.644,0,0,1,5.8-.182,2.605,2.605,0,0,1,.51,1.624A19.089,19.089,0,0,1,499.625,423.679Zm-2.319,5.787c4.6.161,9.151.027,13.5-1.673a11.179,11.179,0,0,0,4.5-3.061c.6-.689.574-1.095-.238-1.626-1.351-.883-2.73-.456-4.125-.337C505.549,423.228,501.183,425.8,497.306,429.466Zm-3.8-2.316c2.232-2.127,4.067-4.121,4.986-6.784a4.142,4.142,0,0,0,.273-2.208c-.158-.734.136-1.872-.7-2.088-1.053-.269-1.71.714-2.166,1.563C494.354,420.5,493.955,423.653,493.506,427.15Z" transform="translate(7.765 0)" fill="#080808"/>
          <path id="Path_1366" data-name="Path 1366" d="M502.6,431.358c.091.587-.35.917-.664,1.284a36.092,36.092,0,0,1-8.656,7.157,73.848,73.848,0,0,1-11.922,5.792,1.123,1.123,0,0,1-1.432-.265,16.328,16.328,0,0,1-2.663-4.366c-.361-.764.416-.668.764-.762a49.885,49.885,0,0,0,9.711-3.647c4.513-2.3,8.625-5.109,11.615-9.307.372-.524.652-.456,1.106-.125A5.942,5.942,0,0,1,502.6,431.358Z" transform="translate(2.001 5.593)" fill="#fff"/>
          <path id="Path_1367" data-name="Path 1367" d="M474.777,431.59c-.1-.5.206-.641.62-.729a29.224,29.224,0,0,0,15.725-9.221c.364-.4.613-.421,1.032-.091,1.311,1.035,2.632,2.061,3.99,3.033.64.458.479.78.053,1.27a29.975,29.975,0,0,1-7.031,5.791,55.838,55.838,0,0,1-12.437,5.528c-.931.3-1.214.144-1.288-.872C475.327,434.721,475.009,433.158,474.777,431.59Z" transform="translate(1.035 3.376)" fill="#fff"/>
          <path id="Path_1368" data-name="Path 1368" d="M502.707,433.988a14.014,14.014,0,0,1,1.036,5.907c.024.524-.407.809-.72,1.126-4.478,4.539-10.03,7.1-16.1,8.706a1.3,1.3,0,0,1-1.271-.309c-.976-.839-1.957-1.669-3.1-2.643C490.3,444.035,497.28,440.35,502.707,433.988Z" transform="translate(4.154 8.444)" fill="#fff"/>
          <path id="Path_1369" data-name="Path 1369" d="M480.212,421.537a2.7,2.7,0,0,0-.771-1.546,7.825,7.825,0,0,1-1.4-1.908,3.669,3.669,0,0,1,1.421-4.8c1.085-.669,2.516-.078,3.421,1.414a2.813,2.813,0,0,1-.851,2.538c-.069.046-.147.12-.216.115-2.3-.186-.844.812-.435,1.425a3.928,3.928,0,0,1,.7,3.083c-.091.424-.1,1.222-.72,1.057C480.876,422.791,479.774,422.786,480.212,421.537Z" transform="translate(2.199 0.052)" fill="#080808"/>
          <path id="Path_1370" data-name="Path 1370" d="M475.212,419.538a19.076,19.076,0,0,1,2.054,1.3,3.446,3.446,0,0,1,1.1,2.18c.032.339.178.853-.419.832-.4-.014-1.028.326-1.183-.291-.272-1.075-1.138-1.339-1.976-1.7-2.345-1.01-3.159-2.89-2.256-5.119a1.631,1.631,0,0,1,1.936-1.179c.784.175,1.844.2,1.976,1.35.105.925.372,1.98-.974,2.328C475.4,419.261,475.362,419.362,475.212,419.538Z" transform="translate(0 1.055)" fill="#080808"/>
          <path id="Path_1371" data-name="Path 1371" d="M494.687,448.059c-.623,0-1.249.031-1.869-.013-.351-.025-.923.279-.969-.409-.034-.508-.188-1.078.493-1.386a18.85,18.85,0,0,0,4.816-3.057,1.253,1.253,0,0,1,1.3-.119c.543.165.3.713.276,1.081a9.237,9.237,0,0,1-.956,3.328.886.886,0,0,1-.97.581C496.1,448.036,495.394,448.059,494.687,448.059Z" transform="translate(7.858 12.031)" fill="#080808"/>
        </g>
      </g>
    </g>
  </g>
</svg>
